<svg viewBox="145.83783783783792 229.95000000000005 1036.2162162162163 1130.5875" xmlns="http://www.w3.org/2000/svg" overflow="visible" xmlns:xlink="http://www.w3.org/1999/xlink" width="1036.2162162162163px" height="1130.5875px"><g id="Master/Character/Bust" stroke="none" stroke-width="1" fill="none" fill-rule="evenodd"><g id="Body" transform="translate(147.000000, 639.000000) scale(1 1)"><g id="Body/Macbook" stroke="none" stroke-width="1" fill="none" fill-rule="evenodd"><path d="M996.081905,209.472139 C981.802496,210.874139 967.523087,212.274139 953.243677,213.676139 C884.855668,218.901139 816.494687,229.813139 748.630206,236.362139 C746.940501,233.612139 743.633163,234.065139 741.625137,235.976139 C734.853304,235.383139 727.263645,230.207139 721.129455,235.591139 C720.930254,235.563139 720.731053,235.530139 720.52985,235.511139 C709.607829,214.548139 702.058211,192.189139 694.730817,169.800139 C690.054098,156.035139 683.761748,142.710139 672.134015,133.468139 C652.289991,119.693139 606.82211,91.7601393 583.520597,92.9341393 C583.134207,88.7621393 581.189244,84.4621393 577.996022,81.6841393 C585.034124,69.6851393 556.892727,61.8561393 554.907724,63.2471393 C556.180008,23.1591393 537.322979,-11.6548607 495.743022,-19.6378607 C458.492433,-27.3998607 405.509969,-28.7038607 385.475753,10.2251393 C383.273531,9.97713926 360.762449,9.85993926 358.584251,10.1039393 C355.197834,5.81493926 318.008321,46.4570207 333.250702,60.6060207 C196.978192,120.888021 119.493355,113.695139 81.7752946,283.164139 C76.6761492,299.084139 76.3047744,316.505139 70.9203411,332.070139 C51.7640108,376.801139 36.226332,424.432139 32.35943,473.104139 C23.0200057,475.497139 21.9459219,491.964139 32.763838,494.346139 C36.8960077,495.257139 40.3514946,496.501139 43.364535,498.860139 C41.0091582,538.746139 50.6558926,629.860139 56.7340259,629.579139 C69.127532,669.022139 124.40912,680.153955 163.546613,666.292955 C156.799805,678.985955 163.546613,686.966717 163.546613,693.748626 C304.373719,699.076626 458.353293,696.008139 599.141359,703.315139 C617.150532,703.059139 636.092646,707.738139 653.85557,705.045139 C664.688502,702.448139 664.70652,685.415139 653.718432,683.309139 L701.731222,672.881011 C700.658139,672.476011 721.522366,658.598251 737.291278,632.665251 C751.969089,603.655251 741.979495,568.637451 748.630206,537.081451 C800.574622,532.833451 853.377905,531.017139 904.753747,522.220139 C911.758816,543.179139 942.082415,518.113139 951.721141,508.030139 C951.709129,508.014139 951.697117,507.999139 951.685105,507.983139 C956.349812,506.707139 960.090587,502.335139 960.215713,497.159139 C963.487014,492.485139 964.173707,485.897139 961.036541,481.380139 C975.41505,398.412139 997.335169,313.700139 1005.25816,229.952139 C1008.05899,229.332139 1010.69665,228.104139 1012.93291,226.212139 L1012.75173,226.031139 C1016.54055,221.807139 1017.27729,214.516139 1010.96092,210.927139 C1005.86578,208.029139 1001.61148,208.928139 996.081905,209.472139 Z" id="Skin" fill="#ffdbb4"/><path d="M453,520 L464,527 L554,556 L609,563 L654,556 L654,633 L663,705 C659,712.333333 621,712.333333 549,705 C503.101885,700.325192 335.356095,698.057214 297.164029,697.059228 L295,697 C250.120339,695.705482 205.787005,695.705482 162,697 L162,670 L287,608 L399,545 L453,520 Z M389.229039,3.93187748 L397.494804,10.1039393 L379.447912,39.7540495 L467.360804,110.864719 L467.360804,167.663759 L495.19331,193.988358 L511.102162,167.663759 L533.51913,137.85242 L549.450017,89.5283855 L544.02577,57.6917655 L554.934063,56.6640801 C554.986839,58.839968 554.977914,61.0355276 554.907724,63.2471393 C556.892727,61.8561393 585.034124,69.6851393 577.996022,81.6841393 C581.189244,84.4621393 583.134207,88.7621393 583.520597,92.9341393 C606.82211,91.7601393 652.289991,119.693139 672.134015,133.468139 C683.761748,142.710139 690.054098,156.035139 694.730817,169.800139 L695.831986,173.158094 L696.968868,176.605259 L698.114318,180.049759 C704.442543,198.985147 711.275651,217.749246 720.52985,235.511139 C720.731053,235.530139 720.930254,235.563139 721.129455,235.591139 C727.263645,230.207139 734.853304,235.383139 741.625137,235.976139 C743.586465,234.109581 746.787374,233.633998 748.509731,236.175454 L748.630206,236.362139 L664.258946,252.983022 L608.598321,448.227022 L560.125689,408.880909 L534.107599,412.75018 L465.398657,437.531463 L385.485804,458.28915 L203.05544,508.584205 L179.823549,508.584205 L44.6389945,475.938893 L32.4560261,471.917566 C36.4791435,423.658066 51.9197085,376.437577 70.9203411,332.070139 C76.3047744,316.505139 76.6761492,299.084139 81.7752946,283.164139 C119.493355,113.695139 196.978192,120.888021 333.250702,60.6060207 C318.008321,46.4570207 355.197834,5.81493926 358.584251,10.1039393 L358.797717,10.0854223 L359.259233,10.0607179 L359.853859,10.0399668 C365.170087,9.88537935 383.499595,10.0025971 385.475753,10.2251393 C386.622027,7.9977854 387.876162,5.90214021 389.229039,3.93187748 Z" id="Top" fill="#FFCF77"/><path d="M1009.5673,215.400439 L1007.05419,229.405148 C1006.45692,229.600743 1005.84923,229.766376 1005.23366,229.902639 C1004.44383,238.251388 1003.51489,246.609717 1002.46819,254.974943 L986.887304,341.814439 C984.199909,357.177659 981.648737,372.573587 979.116221,387.974936 L975.760285,404.518035 L973.681958,414.799826 C969.195412,437.066278 964.836896,459.260163 961.012041,481.330639 C961.58932,482.161826 962.03712,483.063138 962.363164,484.009746 L962.068822,485.253748 L961.86417,486.083221 L961.654796,486.902578 C958.637009,498.503245 953.385982,509.752684 941.011304,513.166439 C931.677018,515.740118 921.435202,515.973372 911.79669,516.989191 L910.728304,517.105439 L742.069304,536.072439 C721.690104,538.363639 701.320504,540.723959 680.952824,543.109367 L663.296131,545.180245 C638.685891,548.030098 613.934117,550.272846 589.686304,555.431439 C588.795304,555.621439 588.057304,555.977439 587.455304,556.445439 C592.338304,537.962439 597.012304,519.503439 601.248304,500.833439 C606.016304,479.820439 610.541304,458.766439 615.641304,437.829439 C625.915304,395.649439 637.432304,353.746439 650.040304,312.203439 C652.686137,303.484273 655.393082,294.782467 658.159401,286.100916 L660.100474,280.032364 L661.594595,275.196489 C663.906373,267.823046 666.767142,260.24462 673.546304,256.177439 C681.479804,251.417144 692.298546,250.627996 701.29655,248.981745 L707.389716,247.837189 C716.506082,246.136356 725.634137,244.500106 734.773304,242.928439 C778.529304,235.402439 822.533304,229.365439 866.699304,224.830439 C912.657369,220.110762 958.775579,217.04405 1004.94971,215.54511 L1009.5673,215.400439 Z M590.949904,504.943499 L591.380304,504.979439 L585.080304,555.340439 C584.073304,554.635439 582.794304,554.203439 581.233304,554.207439 C560.568554,554.268283 540.759606,547.663726 521.599628,540.402895 L518.681926,539.291011 L510.547256,536.164407 C502.278424,532.996279 493.965304,529.898039 485.497304,527.328439 L482.074178,526.295406 L480.33417,525.781569 C473.922744,523.909931 467.178359,522.208583 460.509226,521.785155 L459.600304,521.735439 L461.542304,520.716439 C461.826304,520.567439 462.075304,520.400439 462.296304,520.220439 C465.967304,520.492439 469.645304,520.418439 473.517304,519.720439 C480.799304,518.409439 487.880304,515.876439 494.382304,512.349439 L497.286269,510.7755 L498.475038,510.144805 L499.260383,509.737656 L500.041373,509.342696 C505.62568,506.558985 510.965379,504.816014 518.016304,506.298439 C526.020498,507.983278 533.034785,512.296941 540.250062,515.942258 L541.530594,516.579866 L542.391527,516.995852 L543.269247,517.408691 L544.157467,517.814515 C553.914592,522.205009 569.442947,526.94347 573.184304,513.677439 C574.687304,508.347439 573.510304,503.356439 570.902304,498.980439 C575.762304,498.559787 584.444539,504.289737 590.949904,504.943499 Z M833.827501,339.015658 L833.945078,339.619889 C835.324774,347.047446 831.864808,354.152618 826.629004,359.332439 C822.334004,363.580439 814.733004,365.941439 812.580004,372.052439 C811.354004,375.529439 812.658004,378.826439 815.176004,381.125439 L814.596054,381.411865 L814.029082,381.701674 L813.47555,381.994352 L812.935839,382.289421 L812.410252,382.586431 C803.85624,387.500608 796.89004,395.492469 804.605004,405.145439 C813.35683,416.096102 831.643938,416.450921 844.528224,415.594112 L845.396196,415.533361 C857.889502,414.596564 872.688651,410.40011 879.463004,398.864439 C882.570004,393.572439 882.228004,387.172439 877.897004,382.643439 C875.284004,379.911439 870.623004,377.105439 866.349004,376.773439 C866.536004,374.365439 866.249004,372.039439 865.402004,370.076439 C863.570004,365.833439 858.695004,362.976439 853.993004,362.873439 C854.373746,353.863794 847.157484,344.970541 841.844065,337.767983 L841.301578,337.028987 L840.775004,336.302439 C838.337096,332.910439 833.120695,334.810762 833.827501,339.015658 Z M840.957004,348.605439 L845.798004,366.739439 L845.714867,366.888591 C844.00965,370.126721 848.479703,373.802494 851.131083,371.081688 L851.398019,370.794002 C854.544754,367.544072 859.374928,371.912651 859.435004,375.371439 C859.521004,380.240722 856.351156,384.005498 852.574441,386.492599 L852.309998,386.664043 L851.61369,387.096633 C848.514242,389.144993 850.860754,393.427606 854.268004,392.906439 C858.484004,392.261439 861.939004,388.917439 864.069004,384.742439 C866.345004,385.394439 868.935004,385.315439 871.332004,386.656439 C877.372134,390.034491 873.898303,395.944119 869.965036,399.515887 L869.80535,399.659395 L869.485004,399.938439 C862.268778,406.0921 852.443851,408.229709 843.182656,408.687854 L842.649004,408.712439 C833.294004,409.112439 821.106004,409.246439 813.088004,403.744439 C808.098004,400.320439 806.653004,395.464439 810.876004,390.865439 C813.264004,388.266439 815.675004,385.644439 818.157004,383.110439 C821.872004,384.883439 825.190004,384.164439 828.989004,382.486439 C829.476004,382.270439 829.206004,381.525439 828.729004,381.525439 C826.633004,381.523439 818.942004,377.632439 818.568004,375.146439 C818.222446,372.845439 822.476905,370.905564 824.545736,369.793862 L824.845859,369.629428 L825.106004,369.478439 C827.270004,368.167439 829.307004,366.641439 831.169004,364.927439 C835.894798,360.577263 839.327169,355.12113 840.826083,349.1497 L840.957004,348.605439 Z" id="Computer" fill="#FFF"/><path d="M388.071804,1.18393926 C392.314804,-9.47906074 406.657804,-5.33406074 405.058804,5.86793926 C404.101804,12.5779393 400.426804,19.6649393 397.125804,25.5459393 C394.437804,30.3329393 391.371804,35.0049393 387.214804,38.5929393 C394.614804,45.4969393 402.295804,52.1489393 410.171804,58.4649393 C418.765804,65.3559393 427.802804,71.7079393 437.143804,77.5459393 C445.334804,82.6659393 453.895804,87.2019393 461.616804,93.0439393 C468.795804,98.4749393 475.335804,105.006939 478.663804,113.533939 C482.209022,122.614285 480.668325,131.991781 478.057701,141.065997 L477.757804,142.091939 C475.090804,151.081939 470.473804,161.918939 476.875804,170.388939 C480.134804,174.700939 484.872804,177.754939 488.963804,181.201939 C492.599804,184.265939 496.012804,187.597939 499.142804,191.176939 C505.967804,198.978939 511.518804,207.757939 515.021804,217.539939 L515.335067,218.428623 C518.337571,227.088035 520.531904,237.696106 516.474804,246.197939 C515.310804,248.634939 511.556804,247.842939 510.904804,245.469939 C509.430804,240.093939 509.507804,234.463939 508.271804,229.011939 C506.985804,223.341939 504.845804,217.959939 502.050804,212.867939 C496.642962,203.017176 489.319089,194.602725 480.666283,187.488889 L478.076053,185.382482 C471.325873,179.842857 465.12394,173.966041 463.753804,164.797939 C462.287804,154.988939 466.217804,145.644939 468.744804,136.360939 C470.505804,129.890939 471.080804,123.688939 469.177804,117.841939 C466.852804,121.636939 463.680804,125.238939 461.171804,128.451939 C456.174804,134.852939 451.130804,141.214939 446.099804,147.588939 C440.941804,154.124939 435.910804,160.763939 431.119804,167.574939 C428.976804,170.621939 426.856804,173.686939 424.743804,176.754939 C423.154804,179.060939 420.938804,181.364939 419.206804,183.716939 C419.627804,184.974939 419.595804,186.424939 418.832804,187.454939 C409.647804,199.864939 396.580804,173.970939 393.172804,167.428939 C386.232804,154.105939 381.067804,139.951939 374.104804,126.631939 C366.889804,112.823939 358.673804,99.3839393 349.516804,86.7779393 C343.977804,79.1529393 337.769804,71.9909393 332.702804,64.1239393 C320.765804,74.9479393 305.057804,82.2039393 290.629804,88.7839393 C274.777423,96.0125107 258.308262,101.917726 242.05506,108.188388 L237.253971,110.053126 C209.249222,120.982528 180.560105,132.989789 157.282804,152.402939 C129.929804,175.215939 113.747804,207.011939 101.700804,239.937939 C87.832804,277.842939 76.359804,316.770939 65.664804,355.673939 C60.191804,375.578939 54.998804,395.573939 50.116804,415.632939 C45.814804,433.304939 42.248804,451.152939 37.268804,468.642939 C47.368804,468.285939 58.887804,472.195939 67.510804,473.324939 C106.809804,478.468939 145.579804,486.668939 182.682804,500.865939 C187.265804,502.619939 188.591804,507.196939 187.593804,510.906939 C190.236804,510.160939 192.877804,509.404939 195.520804,508.662939 C192.625145,504.226121 194.007208,496.293776 194.234863,491.376062 L194.248804,491.037939 C194.482804,484.484939 195.193804,477.924939 195.654804,471.383939 C196.53265,458.915016 197.67549,446.537265 199.195012,434.139785 L199.582804,431.039939 C201.304804,417.551939 202.577804,403.984939 204.456804,390.519939 L204.678804,388.978939 C203.777804,385.533939 202.728804,382.130939 201.627804,378.742939 C198.693804,369.717939 194.552804,361.222939 190.923804,352.481939 C190.495804,351.452939 191.961804,350.861939 192.646804,351.478939 C198.792804,357.007939 203.674804,364.021939 207.596804,371.357939 C207.664804,371.011939 207.724804,370.664939 207.795804,370.318939 L208.243344,368.116142 C209.346961,362.744094 210.689349,357.09197 213.984804,352.734939 C214.335804,352.271939 215.029804,352.174939 215.361804,352.734939 C218.515804,358.071939 218.868804,364.830939 219.353804,370.903939 C219.902804,377.773939 219.971804,384.730939 219.874804,391.619939 C219.685804,405.082939 218.736804,418.583939 217.980804,432.024939 C217.239157,445.23341 215.782659,458.273576 213.905608,471.352197 L213.548804,473.804939 C212.631221,480.030023 211.880012,486.332411 210.669732,492.514921 L210.327804,494.197939 C209.680804,497.263939 209.282804,501.586939 207.994804,505.177939 C241.132804,495.934939 274.321804,486.902939 307.573804,478.029939 C331.606804,471.615939 355.664804,465.297939 379.712804,458.939939 C380.981804,456.652939 382.561804,454.516939 384.533804,452.607939 C391.030804,446.315939 399.640804,443.508939 407.537804,448.351939 C408.179804,448.746939 408.233804,449.752939 407.537804,450.133939 C406.024804,450.960939 404.508804,451.808939 403.019804,452.692939 L417.459804,448.781939 C428.252804,445.856939 439.174804,442.201939 450.221804,440.162939 C470.568804,430.121939 492.452804,422.853939 513.886804,415.670939 L516.412565,414.8166 C527.387299,411.075021 538.739018,406.886368 550.077804,404.811939 C558.378804,403.293939 568.122804,405.125939 571.460804,413.629939 C575.686804,416.414939 579.662804,419.687939 583.499804,422.906939 C586.273804,425.232939 588.932804,427.705939 591.636804,430.113939 L592.135299,430.55156 C594.345863,432.469539 596.097011,433.754077 596.639804,436.806939 C596.919804,438.383939 595.917804,440.515939 593.972804,440.306939 C588.021804,439.669939 583.182804,432.771939 579.146804,428.652939 C576.028804,425.468939 572.885804,422.176939 570.039804,418.677939 C568.380804,419.580939 566.106804,419.418939 565.050804,417.418939 C559.574804,407.049939 544.573804,414.234939 536.273804,416.693939 L524.383868,420.213171 C518.439284,421.975299 512.497004,423.746139 506.564804,425.547939 C490.260804,430.498939 474.036804,436.039939 457.584804,440.586939 C459.056804,442.204939 458.853804,445.082939 456.057804,446.177939 C443.179804,451.230939 429.051804,453.843939 415.672804,457.310939 C407.225804,459.501939 398.783804,461.705939 390.344804,463.922939 C388.897804,466.266939 387.856804,468.918939 387.418804,472.005939 C385.808355,483.35647 388.914341,496.452513 391.939857,507.430601 L392.395606,509.068544 C394.882684,517.894774 398.541716,528.714606 406.156804,534.287939 C408.015804,535.646939 410.382804,536.592939 412.768804,536.806939 C427.675804,529.133939 442.581804,521.461939 457.496804,513.803939 C460.259804,512.384939 462.812804,514.305939 463.432804,516.589939 C468.691804,515.726939 473.938804,514.366939 478.717804,512.744939 C486.747804,510.017939 493.017804,504.816939 500.545804,501.219939 C515.111884,494.261859 529.9867,502.808778 543.028306,509.306647 L546.034069,510.783952 C551.882418,513.621497 564.049511,519.072677 566.855804,511.311939 C569.569804,503.803939 560.988804,495.779939 555.446804,492.400939 C548.840804,488.371939 541.148804,486.215939 533.682804,484.419939 C529.419804,483.393939 525.104804,482.556939 520.763804,481.945939 C515.839804,481.252939 510.753804,481.356939 506.012804,479.759939 C503.656804,478.967939 503.294804,475.225939 506.012804,474.607939 C513.310891,472.947048 522.021438,474.758723 529.63727,476.610074 L533.617804,477.590939 C541.290804,479.473939 549.037804,481.836939 556.026804,485.592939 C561.108804,488.324939 566.472804,492.474939 569.976804,497.554939 C573.019727,494.728324 576.80696,494.823886 580.752034,495.872232 L582.89332,496.467476 C586.429192,497.447347 589.295233,498.121796 592.735804,497.442939 C593.195804,494.939939 593.661804,492.435939 594.160804,489.931939 C599.063804,465.317939 604.440804,440.797939 610.373804,416.408939 C620.607675,374.341197 632.449558,332.735162 645.79976,291.555487 L647.139804,287.438939 C650.218804,278.019939 652.696804,267.757939 657.660804,259.104939 C662.355804,250.922939 669.877804,246.209939 678.814804,243.713939 C688.956804,240.881939 699.613804,239.399939 709.959804,237.486939 C712.267804,237.060939 714.581804,236.655939 716.891804,236.236939 C714.939637,232.712273 713.482517,228.711291 712.169996,225.640838 L711.939804,225.108939 C709.120104,218.680239 706.587144,212.135709 704.141178,205.556268 L702.3115,200.609995 C697.895182,188.699199 693.336161,176.984011 687.126804,165.843939 C680.590804,154.119939 671.919804,144.534939 661.110804,136.601939 C639.072804,120.425939 612.509804,112.174939 591.134804,94.8879393 C590.258804,94.1799393 591.381804,92.9689393 592.270804,93.4169393 C606.703804,100.668939 622.284804,105.599939 637.296804,111.503939 L640.258158,112.672373 C652.12352,117.376034 664.17365,122.496555 674.443804,130.111939 C685.893804,138.603939 694.911804,149.149939 701.689804,161.690939 C708.369804,174.052939 712.642804,187.889939 717.355804,201.093939 L718.616328,204.612202 C720.517316,209.887906 722.480804,215.147848 724.730804,220.281939 C726.516804,224.357939 729.849804,229.010939 731.364804,233.666939 C735.509804,232.947939 739.653804,232.226939 743.802804,231.533939 C833.669804,216.529939 924.540804,207.713939 1015.6138,205.134939 C1019.1768,205.033939 1021.0198,208.433939 1020.4948,211.541939 C1011.7548,263.222939 1003.9878,315.080939 995.465804,366.800939 C991.745804,389.373939 987.951804,411.929939 984.068804,434.474939 C982.101804,445.896939 979.827804,457.274939 977.964804,468.713939 C976.460804,477.951939 975.368804,487.261939 972.786804,496.285939 C970.470804,504.376939 966.916804,512.178939 961.079804,518.351939 C954.787804,525.005939 946.005804,528.226939 937.165804,529.748939 C914.724804,533.610939 891.706804,535.187939 869.083804,537.760939 L748.636804,551.463939 C750.396942,567.46256 750.528485,583.212277 749.720894,599.397149 L749.260632,608.232502 C748.884367,615.339127 748.434554,622.456439 747.413804,629.489939 C746.133804,638.312939 742.097804,645.783939 736.152804,652.373939 C730.693804,658.425939 724.061804,663.589939 717.610804,668.537939 C710.914804,673.675939 703.995804,678.634939 696.122804,681.811939 L695.100929,682.21752 C688.194063,684.914176 675.237493,689.090005 665.796804,687.563939 C667.030804,693.746939 669.418804,700.394939 667.301804,706.512939 C666.319804,709.353939 662.604804,710.770939 660.328804,708.353939 C655.819804,703.562939 655.467804,697.234939 654.399804,690.984939 C653.288804,684.480939 652.330804,677.953939 651.479804,671.410939 C649.833804,658.759939 648.552804,645.992939 648.161804,633.234939 C647.759804,620.132939 647.914804,607.012939 648.620804,593.924939 C648.983804,587.203939 649.433804,580.486939 650.286804,573.808939 C650.650804,570.960939 651.022804,568.110939 651.447804,565.269939 C651.602804,564.233939 651.774804,563.202939 651.959804,562.173939 L641.148985,563.393634 C624.572281,565.24423 607.987697,566.915368 591.293804,567.174939 C589.316804,567.204939 587.795804,566.304939 586.801804,564.993939 C585.742804,566.718939 583.898804,567.952939 581.257804,567.942939 C557.944804,567.855939 536.234804,560.232939 515.030804,551.248939 C504.342804,546.718939 493.820804,541.814939 483.116804,537.323939 C473.125804,533.131939 462.444804,530.140939 452.694804,525.418939 L427.074804,538.856939 C426.886804,539.517939 426.645804,540.142939 426.389804,540.665939 C424.721804,544.070939 421.432804,545.917939 418.073804,547.308939 C414.849804,548.646939 411.510804,549.062939 408.257804,548.724939 C388.827554,558.906939 369.392804,569.079377 349.945117,579.227908 L330.492804,589.367939 C291.736804,609.546939 253.133804,630.056939 214.133804,649.761939 L211.262616,651.207286 C197.791866,657.961939 183.327004,664.808873 168.377804,669.917939 C168.111804,673.701939 168.279804,677.381939 168.596804,681.386939 L168.673114,682.259395 C169.118828,686.99223 170.07451,692.922527 166.277804,696.291939 C164.302804,698.043939 160.774804,698.050939 159.431804,695.408939 C156.994804,690.617939 159.182804,683.064939 159.954804,677.859939 C160.228804,676.008939 160.562804,674.105939 161.056804,672.259939 C143.918804,677.361939 126.261804,679.835939 108.821804,676.970939 C91.841804,674.183939 78.690804,663.486939 68.088804,650.402939 C56.899804,636.595939 48.948804,620.504939 44.682804,603.255939 C39.827804,583.627939 39.510804,563.357939 39.624804,543.252939 C39.745804,521.843939 40.537804,500.328939 43.141804,479.063939 C40.288804,478.392939 37.124804,477.812939 34.241804,478.012939 C32.813804,480.297939 30.043804,481.259939 27.540804,480.962939 C22.097804,486.965939 35.903804,493.100939 40.315804,494.636939 C41.847804,495.170939 41.683804,497.658939 39.916804,497.583939 L38.8037812,497.531033 C31.9864196,497.168346 24.9431661,496.00437 20.934804,489.668939 C17.722804,484.590939 18.687804,478.574939 22.516804,474.433939 C25.045804,450.521939 31.091804,427.236939 36.718804,403.910939 C42.240804,381.015939 48.381804,358.267939 54.890804,335.634939 L57.8088287,325.504852 C68.0571273,290.016283 78.7691518,254.241374 92.905804,220.162939 C99.964804,203.146939 108.096804,186.443939 119.119804,171.606939 C129.394804,157.775939 141.525804,145.940939 155.469804,135.832939 C181.464819,116.987219 211.967279,105.600189 241.937238,94.7513706 L243.278804,94.2659393 C258.809804,88.6479393 274.302804,82.9629393 289.656804,76.8759393 C303.235804,71.4929393 316.244804,64.6679393 329.759804,59.2039393 C329.320804,58.4069393 328.896804,57.6009393 328.488804,56.7859393 L328.238952,56.9960874 C328.196248,57.0300504 328.152471,57.0629393 328.106804,57.0939393 C326.747804,58.0359393 324.746804,57.5729393 323.626804,56.5159393 C320.464375,53.5319189 321.53502,50.2194466 323.645922,47.1247781 L323.920804,46.7309393 C326.502804,43.1139393 328.805804,39.2899393 331.188804,35.5419393 L332.681058,33.1980764 C336.681014,26.9364578 340.884471,20.6330504 346.217804,15.4579393 C348.687804,13.0599393 351.391804,11.2659393 354.256804,9.92893926 C354.011804,9.41093926 356.159804,8.35193926 356.768804,8.88493926 C365.845804,5.56293926 376.288804,6.25893926 386.184804,7.17493926 M742.808804,552.125939 L730.188804,553.560939 C716.304804,555.140739 702.415404,556.668339 688.524276,558.181107 L658.351804,561.459939 C658.274804,563.179939 658.065804,564.861939 658.027804,566.160939 C657.830804,572.857939 657.683804,579.557939 657.544804,586.256939 C657.265804,599.684939 657.571804,613.125939 658.455804,626.527939 C659.312679,639.514189 660.441136,652.502197 662.19466,665.400502 L662.553804,667.978939 L662.761804,669.334939 C664.192804,669.472939 665.598804,670.152939 666.767804,671.549939 C669.319804,674.596939 678.560804,671.634939 682.169804,670.350939 C688.104804,668.238939 693.693804,664.670939 698.850804,661.092939 C703.887039,657.599292 708.421904,653.525438 712.779711,649.234038 L716.345256,645.707655 C719.892058,642.183131 723.442701,638.428388 725.615804,633.994939 C728.562804,627.982939 728.943804,620.602939 729.807804,614.054939 C730.871804,606.000939 732.138804,597.947939 733.477804,589.933939 M376.453804,467.583939 L375.144804,467.927939 C327.593804,480.562939 280.113804,493.570939 232.416804,505.647939 C208.812804,511.625939 185.096804,517.168939 161.463804,523.031939 L157.63756,523.988893 C138.993648,528.700979 120.125919,534.372157 105.848804,547.894939 C105.321804,548.392939 104.556804,547.627939 105.052804,547.098939 C120.439804,530.718939 142.323804,523.784939 163.335804,517.773939 C167.219804,516.662939 171.108804,515.577939 174.993804,514.472939 C146.417804,504.285939 117.390804,495.422939 87.693804,489.101939 C80.046804,487.473939 72.310804,486.278939 64.669804,484.644939 C59.340904,483.504639 54.136744,481.856469 48.864139,480.489207 L44.716804,479.445939 L44.6617244,492.553564 C44.592702,511.118629 44.6256611,529.668558 45.572804,548.230939 L45.7520966,551.669504 C46.8571586,572.326817 48.5820672,593.413045 55.912804,612.890939 C61.869804,628.718939 71.364804,643.629939 83.781804,655.158939 C90.064804,660.991939 96.819804,665.532939 105.169804,667.774939 C112.922804,669.855939 121.045804,670.099939 129.015804,669.544939 C167.244804,666.877939 201.274804,646.110939 234.482804,628.916939 C288.799804,600.793939 343.122804,572.684939 397.494804,544.669939 C396.024804,543.664939 394.640804,542.506939 393.381804,541.205939 C386.090804,533.675939 382.244804,523.367939 379.718804,513.384939 C377.029804,502.758939 375.421804,491.369939 375.234804,480.399939 M445.636904,555.526039 C446.116904,555.268039 446.672904,555.591039 446.694904,556.133039 C446.862904,560.285729 444.567969,564.381553 442.853264,568.122586 L442.671904,568.522039 C440.588904,573.156039 438.307904,577.728039 435.948904,582.228039 C431.233904,591.219039 426.333904,600.114039 421.219904,608.883039 C410.935904,626.524039 399.507904,643.422039 385.999904,658.782039 C382.948904,662.252039 377.930904,657.803039 379.888904,654.067039 C389.328904,636.057039 400.333904,619.052039 411.661904,602.195039 C417.332904,593.755039 422.999904,585.307039 428.726904,576.905039 C431.116071,573.399206 433.535793,569.905873 436.020793,566.465549 L437.519904,564.408039 M1009.5918,215.449939 C961.874804,216.890939 914.213804,220.002939 866.723804,224.879939 C822.557804,229.414939 778.553804,235.451939 734.797804,242.977939 C725.658637,244.549606 716.530582,246.185856 707.414216,247.886689 L701.945804,248.914939 C692.827804,250.642939 681.688804,251.355939 673.570804,256.226939 C665.011804,261.361939 662.698804,272.093939 659.850804,280.943939 C656.502804,291.351939 653.239804,301.789939 650.064804,312.252939 C637.456804,353.795939 625.939804,395.698939 615.665804,437.878939 C610.565804,458.815939 606.040804,479.869939 601.272804,500.882939 C597.036804,519.552939 592.362804,538.011939 587.479804,556.494939 C588.081804,556.026939 588.819804,555.670939 589.710804,555.480939 C613.958617,550.322346 638.710391,548.079598 663.320631,545.229745 L665.701804,544.951939 C691.160804,541.957939 716.619804,538.985939 742.093804,536.121939 L910.752804,517.154939 C920.699804,516.036939 931.355804,515.884939 941.035804,513.215939 C957.493564,508.675799 961.351158,490.276065 964.112452,475.622812 L964.195804,475.179939 C972.520804,430.906939 979.147804,386.248939 986.911804,341.863939 M591.404804,505.028939 C584.856804,504.596939 575.894804,498.599939 570.926804,499.029939 C573.534804,503.405939 574.711804,508.396939 573.208804,513.726939 C569.025804,528.558939 550.108804,520.884939 540.996804,516.353939 C533.525804,512.636939 526.311804,508.088939 518.040804,506.347939 C508.670804,504.377939 502.322804,508.103939 494.406804,512.398939 C487.904804,515.925939 480.823804,518.458939 473.541804,519.769939 C469.669804,520.467939 465.991804,520.541939 462.320804,520.269939 C462.099804,520.449939 461.850804,520.616939 461.566804,520.765939 L459.624804,521.784939 C468.405804,522.186939 477.349804,524.896939 485.521804,527.377939 C493.989804,529.947539 502.302924,533.045779 510.571756,536.213907 L518.706426,539.340511 C538.77185,547.024343 559.542304,554.320877 581.257804,554.256939 C582.818804,554.252939 584.097804,554.684939 585.104804,555.389939 M554.769104,458.554939 C561.238104,457.763939 567.209104,458.611939 572.378104,462.822939 C578.612104,467.900939 582.800104,476.322939 591.762104,476.875939 C594.375104,477.036939 594.982104,480.710939 592.385104,481.478939 C585.714104,483.453939 580.313104,479.844939 575.768104,475.158939 L572.712291,471.966226 C568.220823,467.315488 564.078415,463.72007 556.457104,463.997939 C548.295104,464.295939 540.119104,466.181939 532.010104,467.140939 C522.824104,468.226939 513.640104,469.152939 504.425104,469.951939 C503.997104,469.988939 503.924104,469.314939 504.325104,469.215939 L514.646308,466.647281 M548.524704,432.108739 L549.59161,432.001959 C558.985363,431.089822 567.576286,431.05443 575.965704,436.107739 L577.574784,437.080793 C585.1387,441.678148 593.371571,447.094406 598.101704,454.537739 C598.875704,455.756739 597.596704,457.189739 596.301704,456.879739 C587.210704,454.697739 580.564704,448.027739 572.919704,443.035739 C564.339704,437.433739 555.476704,438.357739 545.693704,439.227739 C536.221704,440.070739 526.754704,441.228739 517.375704,442.807739 C508.562704,444.289739 499.721704,446.629739 490.819704,447.375739 L490.821704,447.357739 C489.804704,447.355739 489.224704,445.828739 490.261704,445.310739 C499.295704,440.799739 509.758704,438.664739 519.585704,436.603739 M833.889504,339.263939 C832.981504,334.920939 838.323504,332.906939 840.799504,336.351939 L841.326078,337.078487 C846.675277,344.406852 854.411375,353.602617 854.017504,362.922939 C858.719504,363.025939 863.594504,365.882939 865.426504,370.125939 C866.273504,372.088939 866.560504,374.414939 866.373504,376.822939 C870.647504,377.154939 875.308504,379.960939 877.921504,382.692939 C882.252504,387.221939 882.594504,393.621939 879.487504,398.913939 C872.713151,410.44961 857.914002,414.646064 845.420696,415.582861 L844.975504,415.614939 C832.071504,416.506939 813.477504,416.265939 804.629504,405.194939 C796.094504,394.515939 805.527504,385.869939 815.200504,381.174939 C812.682504,378.875939 811.378504,375.578939 812.604504,372.101939 C814.757504,365.990939 822.358504,363.629939 826.653504,359.381939 C831.889308,354.202118 835.349274,347.096946 833.969578,339.669389 M840.981504,348.654939 C839.558504,354.838939 836.062504,360.494939 831.193504,364.976939 C829.331504,366.690939 827.294504,368.216939 825.130504,369.527939 L824.870359,369.678928 C822.949857,370.757052 818.229225,372.776939 818.592504,375.195939 C818.966504,377.681939 826.657504,381.572939 828.753504,381.574939 C829.230504,381.574939 829.500504,382.319939 829.013504,382.535939 C825.214504,384.213939 821.896504,384.932939 818.181504,383.159939 C815.699504,385.693939 813.288504,388.315939 810.900504,390.914939 C806.677504,395.513939 808.122504,400.369939 813.112504,403.793939 C821.130504,409.295939 833.318504,409.161939 842.673504,408.761939 C852.089504,408.359939 862.154504,406.259939 869.509504,399.987939 L869.82985,399.708895 C873.827178,396.153801 877.478257,390.129641 871.356504,386.705939 C868.959504,385.364939 866.369504,385.443939 864.093504,384.791939 C861.963504,388.966939 858.508504,392.310939 854.292504,392.955939 C850.885254,393.477106 848.538742,389.194493 851.63819,387.146133 L852.334498,386.713543 C856.226461,384.229506 859.547504,380.403461 859.459504,375.420939 C859.399428,371.962151 854.569254,367.593572 851.422519,370.843502 L851.278504,370.998939 C848.6454,373.966969 844.007506,370.226817 845.739367,366.938091 L845.822504,366.788939 M226.862202,176.675539 C226.850504,175.932539 227.895504,175.654539 228.260504,176.297539 C234.372504,187.050539 237.567504,200.231539 240.823504,212.078539 C244.233504,224.488539 246.986504,237.024539 249.459504,249.652539 C254.468504,275.223539 257.137504,300.647539 257.318734,326.709539 C257.343504,330.430539 251.281504,331.420539 250.688504,327.607539 C246.751504,302.256539 242.979504,276.879539 239.012504,251.535539 C237.016504,238.788539 234.693504,226.090539 232.470504,213.381539 M287.370504,195.405039 C286.920504,193.922039 289.078504,193.426039 289.630504,194.782039 C301.896504,224.891039 306.050504,259.013039 298.175504,290.778039 C296.970504,295.637039 289.853504,293.532039 290.762504,288.734039 M445.587904,168.651239 C445.525904,167.541239 446.966904,167.366239 447.509904,168.130239 C453.321904,176.319239 455.732904,187.286239 465.929904,191.518239 C471.020904,193.631239 476.749904,193.263239 481.247904,196.832239 C484.254904,199.219239 486.560904,202.987239 484.303904,206.602239 C483.575904,207.770239 481.537904,208.355239 480.549904,207.086239 C479.107904,205.237239 478.344904,203.023239 476.385904,201.637239 C473.622904,199.682239 469.896904,199.561239 466.728904,198.642239 C462.630904,197.454239 459.018904,195.375239 456.060904,192.286239 M542.686104,32.0673393 C543.285104,31.7623393 543.860104,31.9573393 544.243104,32.4753393 C544.790104,33.2133393 544.723104,33.9313393 544.053104,34.4373393 C544.948104,36.2663393 546.005104,40.8483393 546.156104,41.5153393 C546.768104,44.2193393 547.419104,46.9073393 548.100104,49.5933393 C549.474104,55.0103393 550.678104,60.4693393 552.053104,65.8883393 C553.511104,71.6323393 555.248104,77.3153393 557.181104,82.9163393 C557.305771,83.2790059 557.442882,83.6492282 557.586808,84.0249319 L557.807104,84.5923393 L557.861104,84.5063393 C558.254104,83.8853393 559.072104,84.3193393 558.975104,84.9753393 C558.885104,85.5733393 558.764104,86.1683393 558.662104,86.7663393 L558.864655,87.3020656 C560.129079,90.7052293 560.995004,94.2893893 558.675104,97.2923393 C557.807104,98.4153393 556.852104,99.0803393 555.662104,99.2783393 C553.754104,105.568339 551.360104,111.741339 548.797104,117.669339 L548.045911,119.400576 C544.275795,128.050753 540.254917,136.587277 534.252104,143.951339 C527.698104,151.991339 518.683104,157.481339 512.974104,166.291339 C510.318104,170.389339 508.470104,174.698339 506.970104,179.326339 L506.405835,181.083016 C505.341145,184.356425 504.112771,187.529218 501.042104,189.449339 C500.062104,190.061339 498.594104,189.866339 497.804104,189.031339 C491.507104,182.370339 498.099104,169.932339 501.896104,163.483339 C507.174104,154.515339 514.813104,148.778339 522.462104,142.012339 C530.707104,134.719339 535.966104,124.963339 541.053104,115.352339 C544.169104,109.464339 547.177104,103.449339 550.344104,97.5353393 C547.035369,94.6109569 545.976229,88.8020434 544.855246,84.7643896 L544.753104,84.4023393 C542.900104,77.9363393 541.428104,71.3023393 540.498104,64.6393393 C539.603045,58.232751 539.22973,51.9182874 539.466532,45.4758497 L539.534868,43.834728 M554.988404,62.5591393 C554.257404,61.5571393 555.467404,60.4221393 556.470404,60.6311393 C562.568611,61.8921048 568.530713,65.5833771 574.00388,68.5681847 L574.588404,68.8851393 C578.957404,71.2411393 583.353404,74.1271393 585.647404,78.7041393 C588.142434,83.6786847 587.936888,89.4083009 587.59662,94.8143072 L587.564404,95.3201393 C587.147404,101.803139 587.080404,108.539139 585.708404,114.905139 C585.006404,118.163139 582.055404,119.081139 579.532404,118.311139 C576.530404,127.790139 568.097404,134.774139 561.937404,142.254139 C554.083404,151.790139 555.561404,164.665139 556.382404,176.150139 C556.714404,180.800139 550.930404,182.122139 547.951404,179.641139 L541.086145,173.938917 C539.942848,172.987139 538.801071,172.033473 537.662404,171.076139 C536.687071,170.255473 535.720626,169.428584 534.762182,168.591324 L533.330404,167.327139 C532.695404,166.759139 529.894404,163.630139 529.075404,163.500139 C527.091671,163.184806 522.378722,168.41282 520.765763,170.052547 L520.561404,170.257139 C517.525404,173.234139 514.782404,176.437139 512.227404,179.834139 C511.757404,180.458139 510.838404,179.940139 511.174404,179.219139 C513.463779,174.315077 516.12581,169.626346 519.286566,165.237817 L519.925404,164.364139 C522.028404,161.530139 524.851404,156.526139 528.563404,155.689139 C533.095967,154.667868 537.621818,159.213201 540.919588,161.735934 L541.128404,161.894139 C542.697404,163.071139 544.248404,164.269139 545.796404,165.475139 C545.634404,156.924139 546.714404,148.284139 551.129404,140.915139 C554.242404,135.718139 558.906404,131.869139 562.897404,127.403139 C567.340404,122.430139 569.660404,116.318139 573.682404,111.139139 C574.200404,110.473139 574.914404,110.114139 575.687404,110.000139 C575.841949,105.836503 576.455173,101.631544 576.929027,97.5129867 L577.066404,96.2801393 C577.545404,91.8051393 578.677404,86.3391393 576.486404,82.1481393 C574.416771,78.1896393 569.668085,75.395457 566.15162,72.7096392 L563.280367,70.4824487 M357.073804,15.2409393 C355.237804,16.3029393 353.521804,17.6239393 351.964804,19.2749393 C347.063804,24.4739393 343.559804,30.9439393 340.149804,37.1679393 C338.313804,40.5199393 336.543804,43.9089393 334.692804,47.2529393 C333.887804,48.7079393 333.059804,50.1469393 332.222804,51.5839393 C331.835804,52.2459393 330.685804,53.5619393 330.115804,54.3729393 C330.749156,55.2603563 331.40399,56.1341511 332.071961,56.9984954 C332.326817,57.3282752 349.907564,76.47963 356.035804,83.9749393 C365.419804,95.4559393 373.807804,107.582939 380.978804,120.562939 C388.000804,133.273939 393.346804,146.731939 399.851804,159.688939 C403.107804,166.175939 406.743804,172.616939 411.378804,178.230939 C411.557804,178.449939 411.746804,178.656939 411.929804,178.872939 C413.698742,174.094096 418.231492,168.9774 420.457732,166.039378 L420.665804,165.761939 C425.714804,158.955939 431.046804,152.354939 436.494804,145.865939 C441.470804,139.940606 446.573224,134.143273 451.799254,128.441632 L453.764804,126.307939 C457.405804,122.374939 462.030804,116.489939 467.360804,113.679939 C466.789804,112.661939 466.128804,111.654939 465.368804,110.660939 C460.374804,104.135189 453.315401,99.3992309 446.349619,95.1259155 L441.832264,92.378016 C424.804352,82.0012314 408.041706,71.1435246 393.258804,57.6609393 C385.437804,50.5269393 377.724804,43.0539393 371.150804,34.7329393 L368.825863,31.7908223 M385.485804,10.1039393 C377.511804,10.7729393 368.900804,10.6139393 361.531804,13.2119393 C368.082804,19.4049393 374.309804,26.0919393 380.706804,32.3889393 C381.275804,28.1299393 382.439804,23.9229393 383.425804,19.7699393" id="Ink" fill="#000"/></g></g><g id="Head" transform="translate(372.000000, 180.000000) scale(0.9978902953586498 1)"><g id="Head/Senior" stroke="none" stroke-width="1" fill="none" fill-rule="evenodd"><path d="M398.851323,192.083773 C363.670323,99.526773 300.253,31.7598 193.341,74.3238 C190.274,72.2358 186.272,71.6758 182.437,74.1208 C124.198,110.6898 82.259,169.3188 64.084,235.4298 C53.023,237.5328 42.275,241.2008 32.675,247.2158 C11.811,260.2888 -2.226,281.0908 -15.384,301.3508 C-19.341,307.4418 -15.677,317.5258 -8.241,318.9088 C-5.011,319.5108 -1.81,319.8688 1.373,319.9628 C0.598,322.7758 -0.422,325.4938 -1.721,327.9868 C-6.424,337.0108 2.461,346.5918 10.788,344.1248 C11.712,344.6138 12.68,345.0158 13.683,345.3178 C13.797,350.4298 16.424,357.2728 21.623,358.3058 C30.031,360.1098 41.205,353.6748 39.221,344.2708 C41.761,344.7178 44.292,344.7738 46.759,344.4638 C47.035,349.3608 46.949,354.4708 47.625,358.9878 C49.835,380.2758 71.105,394.5758 91.389,388.0998 C92.633,394.7328 94.094,404.0528 100.627,407.6508 C108.265,429.0778 121.454,453.5308 143.056,463.2938 C141.133,468.2208 142.176,474.2148 147.968,477.5118 C187.509,500.0548 234.969,507.6828 279.673,499.3018 C297.539,498.2378 314.946,494.2008 331.654,485.5998 C343.838,479.3278 355.039,471.3628 365.973,463.1518 C376.913,454.9378 388.61,446.9398 397.342,436.2748 C406.826,424.6918 411.241,411.0638 414.106,396.5588 C427.235,330.7198 422.700323,266.072944 398.851323,203.354944 C369.329985,125.719854 428.362028,269.722906 398.851323,192.083773 Z" id="Skin" fill="#ffdbb4"/><path d="M32.5714312,243.430014 C65.4104187,224.05952 107.290189,229.07317 127.019531,259.078614 C130.425279,264.258559 132.77701,269.956888 134.438059,276.553225 L134.706144,277.649928 L134.973731,278.803534 C135.834322,282.617283 136.397876,286.206251 137.162474,292.308187 L138.009677,299.232083 L138.251568,301.118546 C139.073421,307.385492 139.794456,311.343734 140.917834,315.378821 L141.140421,316.161406 L142.438001,320.630282 L137.539806,322.44015 C128.15394,325.830102 126.189022,326.132727 120.77291,323.30187 C116.543663,321.091357 114.336046,318.115343 111.397962,312.084077 L110.97297,311.201436 L110.035658,309.233922 L109.527247,308.197279 C107.612901,304.375128 106.079968,300.299547 103.914493,298.819677 C100.973055,296.809518 91.7015931,296.009142 85.253754,296.801512 L84.9176696,296.844032 L84.6397312,296.902019 L84.1622781,297.009339 C73.3194218,299.572229 63.4366973,308.325291 56.9182611,317.574596 C51.6697151,325.022563 48.6536626,334.404314 48.2838097,344.153155 L48.2630777,344.803604 L48.1346413,349.779416 L37.6240418,349.555611 L37.727,347.619 L37.5695138,347.963139 C34.2582791,354.944345 25.9384632,359.593083 18.9776545,354.971815 L18.7296428,354.802816 L18.4769905,354.621555 C12.600602,350.296646 11.8929667,341.540278 16.7161106,336.222843 L16.9391548,335.983537 L17.156,335.763 L17.111655,335.742398 L17.0616779,335.725553 L17.0306979,335.722226 C15.3876405,336.024255 13.9444412,336.866973 11.9919882,338.660594 L11.4896696,339.131032 L10.4812686,340.222187 L9.43777652,341.335906 L8.98940656,341.796102 C8.70286806,342.085138 8.43985686,342.339494 8.19303923,342.564221 C7.85954612,342.867867 7.55086613,343.123339 7.21480463,343.355958 C6.90420909,343.570949 6.58337022,343.759223 6.19536267,343.927577 C5.2377203,344.343091 4.21410077,344.539922 2.9041299,344.217796 C1.10740467,343.777287 0.0946933192,342.691282 -0.518361964,341.411827 C-0.756452372,340.914929 -0.892574346,340.457514 -0.989051195,339.974671 C-1.08979522,339.470472 -1.13971505,338.955619 -1.16562003,338.361691 C-1.18254986,337.973538 -1.18855708,337.549683 -1.18519775,337.086148 L-1.17332835,336.360587 L-1.14857617,335.572522 L-1.122037,334.943792 L-1.00301318,332.611333 C-0.577441463,324.954624 1.4350579,317.434393 4.88055075,310.335823 L5.22987098,309.627382 L5.36,309.37 L4.99982853,309.852932 C2.65007008,312.94958 0.380931437,315.09636 -2.45087534,316.513871 L-2.84057884,316.702668 L-3.22159296,316.875524 C-7.15075639,318.601259 -11.1080957,317.931624 -13.4988472,314.731827 C-15.1527891,312.51818 -15.6407597,309.604222 -15.3019436,306.538824 C-14.644012,300.591684 -12.2920214,295.146536 -7.68686429,287.201023 L-7.04155535,286.095719 L-4.51361251,281.808827 C5.22752117,265.415001 17.7489801,252.171813 32.5714312,243.430014 Z" id="hair" fill="#E8E1E1"/><path d="M228.769,56.2876 C246.774,55.0166 265.107,58.0516 282.253,63.4806 C309.599,72.1366 334.713,87.4126 355.346,107.2996 C376.611,127.7946 392.338,153.0636 401.901,180.9726 C413.433,214.6306 415.159,250.5686 418.405,285.7036 C420.0447,303.4553 422.746642,320.93625 425.555712,338.515979 L426,341.2926 C428.744,358.4206 430.288,375.7436 426.497,392.8446 C420.195,421.2666 401.303,445.3926 378.878,463.2196 C332.811,499.8416 261.097,522.1686 207.46,488.4696 C199.162,483.2556 207.025,469.9226 215.126,475.3556 C220.827,479.1806 226.867,482.5336 233.344,484.8486 C260.406,494.5196 290.127,491.0746 316.873,482.0786 C343.23,473.2136 368.521,458.2346 387.969,438.2466 C408.397,417.2516 419.718,391.3186 418.082,361.8106 C417.107,344.2536 413.107,327.0216 410.887,309.6076 C408.920467,294.184267 407.741418,278.677307 406.382339,263.191602 L405.884197,257.621514 C403.00272,226.070834 398.864209,193.654716 384.509,165.0156 C372.434,140.9216 354.753,119.4866 333.493,102.9326 C311.235,85.6016 284.65,73.4806 256.756,68.9596 C223.954,63.6436 192.554,73.3106 165.191,91.3066 C140.923,107.2666 120.059,128.5946 104.061,152.7946 C96.303,164.5286 89.694,177.0596 83.987,189.9106 C78.609,202.0186 74.901,214.7086 70.576,227.1886 C74.135,227.0826 77.753,227.2196 81.427,227.6256 C100.271,229.7136 117.828,239.4796 129.005,254.8786 C142.664,273.6956 138.972,296.7936 144.307,318.1936 C144.72,319.8546 144.018,321.4806 142.595,322.3996 C134.506,327.6276 123.68,327.8016 115.851,321.9146 C109.056,316.8056 105.866,307.5686 108.617,299.4976 C108.976,298.4456 110.508,298.6316 110.551,299.7596 C111.068,313.4946 123.811,324.0716 136.302,317.5356 C130.944,299.0826 133.764,278.4736 122.805,261.8056 C103.408,232.3056 63.268,231.0866 35.075,247.7166 C20.2374833,256.467283 8.49322194,269.625299 -0.251916208,284.342916 L-2.77135019,288.615433 C-6.12350875,294.324082 -9.673525,300.7821 -10.369,307.0686 C-10.77,310.6966 -9.431,314.1056 -5.269,312.2776 C-1.902,310.7996 0.705,307.3506 2.705,304.3856 C6.11592473,299.328568 13.9540822,303.697509 11.1366683,309.082648 L11.041,309.2586 C6.9406,316.522943 4.41613469,324.528069 3.9525444,332.868793 L3.83473437,335.178476 C3.75743359,336.86183 3.701875,339.254287 4.058,339.3416 C4.485,339.4466 7.452,336.0216 7.946,335.5476 C10.326,333.2616 12.777,331.3936 16.09,330.7846 C20.4451467,329.986387 24.8392338,335.374836 21.0587611,338.907424 L20.901,339.0496 C17.527,341.9826 17.677,347.8316 21.404,350.5746 C26.664061,354.445807 33.139917,348.127169 33.9033497,342.92475 L33.929,342.7326 C34.604,337.1116 42.411,336.9126 42.835,342.7326 C43.756,355.3626 28.719,365.9486 17.278,359.5766 C12.754,357.0586 9.878,352.4476 8.977,347.5056 C7.533,348.2686 5.975,348.7976 4.328,348.9436 C-1.034,349.4186 -4.846,345.6486 -5.713,340.5886 C-6.723,334.6936 -6.124,328.3816 -4.571,322.2596 C-7.483,322.9616 -10.546,322.6936 -13.625,320.9166 C-22.94,315.5416 -20.265,303.5856 -16.748,295.5136 C-1.733,261.0596 29.375,229.7966 67.915,227.3146 C68.126,221.2356 68.95,215.4886 70.298,209.4016 C83.48,149.8626 126.184,94.7306 181.779,68.9626 C196.635,62.0766 212.39,57.4446 228.769,56.2876 Z M82.9754,294.1234 L83.5037501,294.00433 C89.5100584,292.710242 105.31648,291.19 103.4114,301.2974 C103.3214,301.7724 102.6304,301.7144 102.5074,301.2974 C100.6414,294.9424 87.9654,300.0244 84.2644,301.5544 C79.1624,303.6624 74.1294,306.7724 69.9634,310.3874 C60.8424,318.3034 54.7284,329.4594 53.7984,341.5754 C52.8764,353.5944 56.3634,366.5764 65.0334,375.2704 C69.2834,379.5314 74.7084,382.4244 80.8024,382.6374 C86.2774,382.8274 92.3264,378.5654 97.3784,381.0614 C98.3744,381.5534 99.1634,382.9044 99.0734,384.0164 C98.9034,386.1214 97.9614,387.7604 96.5594,389.0314 C105.0174,404.4444 111.9394,420.7584 122.7284,434.7744 C128.1424,441.8064 134.2774,448.3184 141.2244,453.8604 C144.5264,456.4954 148.1164,458.8094 151.8184,460.8424 C156.1564,463.2274 159.9104,464.7194 163.0064,468.7594 C165.6464,472.2044 163.0054,478.8654 158.6534,479.4594 C148.4044,480.8554 138.4444,472.5694 130.9204,466.3624 C123.4034,460.1604 116.9064,452.5104 111.5374,444.3934 C101.2274,428.8064 94.1744,410.4184 91.3544,391.8154 C88.0804,392.8534 84.3944,393.1704 81.6214,393.1764 C74.2434,393.1934 67.1984,390.5394 61.4004,386.0544 C40.1744,369.6374 37.8154,335.9304 52.7944,314.6744 C59.9624,304.5034 70.8544,296.9884 82.9754,294.1234 Z M83.1084,333.2174 C88.0304,332.7854 92.9484,333.5624 97.5744,335.2404 L99.4814118,335.931725 C103.509867,337.404646 107.797917,339.136572 110.7074,342.1564 C115.1524,346.7724 110.7264,354.7704 104.3944,353.0014 C97.3934,351.0454 91.7034,345.1494 84.7044,342.6764 C78.4484,340.4664 71.3624,340.7794 65.8104,344.5854 C65.0774,345.0884 64.1134,344.0964 64.5924,343.3664 C68.8394,336.8994 75.5444,333.8804 83.1084,333.2174 Z" id="Ink" fill="#000"/></g></g><g id="Face" transform="translate(531.000000, 366.000000) scale(1 1)" fill="#000"><g id="Face/Smile" stroke="none" stroke-width="1" fill="none" fill-rule="evenodd"><path d="M146.586567,240.926554 C139.864291,238.184203 133.866322,233.609781 129.481228,227.766254 C127.956691,225.734803 127.561405,223.589624 127.881219,221.627583 C128.240828,219.421406 129.546036,217.4219 131.326046,216.080693 C133.111571,214.735331 135.345035,214.071832 137.504329,214.410065 C139.380629,214.703969 141.248396,215.731287 142.726594,217.861908 L143.035427,218.287981 C145.642441,221.814933 149.039621,224.708755 152.91047,226.573991 C156.641339,228.371775 160.813939,229.21087 165.131898,228.722919 C173.355732,227.793938 179.024012,223.346401 185.048774,217.30672 C185.795561,216.544195 186.542826,215.757766 187.293714,214.958678 C187.767915,214.234308 188.425986,213.768756 189.156624,213.524488 C189.967867,213.253272 190.885573,213.268617 191.726122,213.56195 C192.536835,213.844871 193.261572,214.380994 193.747527,215.094538 C194.209389,215.772704 194.47125,216.610486 194.386283,217.574143 C193.834826,223.833283 190.562474,229.419299 185.914235,233.805502 C180.751772,238.67694 173.908551,242.047034 167.465957,243.229031 C160.36811,244.531047 153.135593,243.598228 146.586567,240.926554 L146.586567,240.926554 Z M170.814304,144.367155 C178.365682,148.9572 189.871664,159.660291 181.748119,171.039573 C172.185929,181.073062 158.418535,169.568982 151.634201,164.366134 C145.343449,160.333898 138.275437,170.704507 144.112,175.412823 C193.135736,211.708059 213.030606,145.567387 174.633685,138.970386 C170.406047,138.243425 168.835891,142.947174 170.814304,144.367155 Z M82.9633,102.1464 C83.7976284,91.7901242 99.5703,89.4384 101.1393,99.6864 C102.5443,108.8664 100.8903,117.2994 96.7553,125.5644 C92.8043,133.4604 82.8737826,129.776544 82.1227826,122.586544 C81.1160984,112.948648 82.4443,108.588596 82.9633,102.1464 Z M203.027,97.5615 C205.226,94.6815 208.401,92.7155 212.205,93.8265 C224.09,97.2995 220.587,114.1725 216.413,122.3855 C214.145,126.8455 206.814,127.9765 203.501,124.0495 C198.101,117.6455 195.515,104.8565 202.38,98.5485 C202.566,98.2225 202.773,97.8935 203.027,97.5615 Z M96.5879,56.8305 L98.465271,56.501905 C104.27307,55.49746 111.4944,54.5323 115.6029,59.2015 C117.7819,61.6775 118.5319,66.2795 115.6029,68.6495 C110.4509,72.8195 104.7549,71.2035 98.5809,71.5565 C93.4929,71.8485 88.6029,72.6905 83.7019,74.0915 C72.9499,77.1645 64.1889,82.7745 55.0059,88.9345 C53.8009,89.7425 52.5709,88.2015 53.1459,87.0745 C58.4469,76.6915 68.7199,68.1625 79.0099,62.9635 C84.5019,60.1885 90.5119,57.8865 96.5879,56.8305 Z M192.192876,52.1793876 L193.629806,52.4734684 C209.267042,55.742077 229.583473,62.2713911 236.988459,77.6308459 C237.270623,79.8027272 236.97249,80.2682047 236.730054,80.5723213 L236.649336,80.6735209 C236.449568,80.9332186 236.290169,81.2912104 235.348782,81.5868073 C235.087547,81.5245653 234.823712,81.4586426 234.557082,81.3887687 C231.162766,80.499243 228.477205,79.2737961 225.877298,78.0022488 L223.058339,76.6134493 C219.787784,75.0098309 216.488352,73.4645766 212.991711,72.3238115 C205.52958,69.8898666 197.854137,68.1753043 190.059777,67.259767 C188.37041,67.0615005 186.743655,66.4913394 185.460262,65.5141761 C184.242065,64.5866523 183.311441,63.3024737 182.887128,61.5955207 C182.33722,59.3864508 182.495251,57.7140037 183.680513,55.7210991 C184.571756,54.2244705 185.846982,53.1871113 187.311265,52.5914244 C188.804038,51.9841473 190.503545,51.840982 192.192876,52.1793876 Z" id="Ink" fill="#000"/></g></g><g id="Beard" transform="translate(494.999934, 517.999659) scale(1 1)" fill="#000"><g id="Beard/Senior Mustache" stroke="none" stroke-width="1" fill="none" fill-rule="evenodd"><path d="M245.365277,32.8226847 C231.338969,30.4572303 216.766641,33.9532014 203.242791,37.6782594 C181.759624,23.5729056 153.92278,37.8103838 138.536995,55.4330191 C133.271305,59.7696855 122.213152,65.5298866 128.039044,73.8036493 C125.830655,79.6522886 125.240063,82.4045268 129.81082,75.5670849 C155.679361,78.5452133 183.43415,72.9192677 209.035253,67.6129782 C217.752312,70.5442237 225.450269,77.3976483 235.032448,75.0503077 C244.092921,76.9767679 253.901005,78.7753656 262.080148,72.9629541 C268.30821,72.7104258 282.164331,83.8941237 281.941466,70.8883866 C280.014697,58.4218027 255.296689,37.6782594 245.365277,32.8226847 Z" id="Background" fill="#E8E1E1"/><path d="M255.8834,72.8453 C240.6554,74.5303 225.2124,72.0543 212.4614,63.2123 C211.1304,62.2893 209.8184,62.2993 208.7484,62.8403 C207.4474,62.6963 206.1164,63.2153 205.3444,64.7013 C202.1424,70.8683 191.5294,69.4943 185.6954,69.6203 C166.6124,69.9883 146.8634,68.9353 128.4984,74.7043 C146.0624,40.3703 170.3534,25.5483 207.9404,39.0273 C204.5464,41.7603 221.4824,35.3623 222.9684,35.2403 C248.9744,28.7243 270.4294,50.5363 280.9104,72.1503 C272.9814,70.2633 264.0964,71.9363 255.8834,72.8453 M292.2074,78.6883 C280.7404,52.8593 258.1304,24.4593 226.5934,28.9233 C220.1184,29.8763 213.3074,34.2993 206.7884,33.5013 C187.9134,26.5303 172.3334,22.9883 153.4304,34.2603 C145.4104,34.8593 100.2784,90.7363 121.7254,86.1743 C148.0514,71.0563 193.8254,85.2963 210.1734,71.7743 C242.2684,92.8433 268.3644,69.9563 286.4524,83.1263 C289.5974,86.0113 294.0084,82.4183 292.2074,78.6883" id="Ink" fill="#000"/></g></g><g id="Mask" transform="translate(400.000000, 480.000000) scale(1 1)" fill="#000"><g id="Mask/None" stroke="none" stroke-width="1" fill="none" fill-rule="evenodd" fill-opacity="0"/></g><g id="Accessories" transform="translate(419.000000, 421.000000) scale(1 1)" fill="#000"><g id="Accessories/None" stroke="none" stroke-width="1" fill="none" fill-rule="evenodd" fill-opacity="0"/></g></g></svg>