<svg viewBox="420.79999999999995 447.36842105263145 1420.2 1578.9473684210525" xmlns="http://www.w3.org/2000/svg" xmlns:xlink="http://www.w3.org/1999/xlink" overflow="visible" width="1420.2px" height="1578.9473684210525px"><defs><path d="M541.1735,347.65 L415.6305,310.677 C395.7185,304.813 381.7655,286.9 380.9535,266.158 L375.9105,137.351 C374.1845,93.243 348.3815,53.644 308.7295,34.249 L245,3.003 C227.954,37.964 169.1585,0 169,0 L94.7005,37.625 C47.7605,61.447 21.8255,113.079 30.7405,164.958 L48.8965,270.606 L0.8965,1078.243 L398.4105,1078.243 L369.1635,435.644 L513.1465,442.819 L541.1735,347.65 Z" id="masterspot-illustrationnew-patient-path-1"/><path d="M11.4192911,0.775248193 L105.392236,0.775248193 C110.54643,0.775248193 114.856327,4.69275663 115.346847,9.82355671 L127.053229,132.271311 L127.053229,132.271311 L170.896196,141.521231 C180.147047,143.47296 186.767515,151.635945 186.767515,161.090441 L186.767515,199.987847 L186.767515,199.987847 L35.3734577,199.285443 C25.0060558,199.237343 16.3941816,191.274887 15.5350387,180.943033 L1.45368637,11.6039357 C0.99601491,6.10008418 5.08675209,1.26731495 10.5906036,0.809643492 C10.8662382,0.78672316 11.1427051,0.775248193 11.4192911,0.775248193 Z" id="masterspot-illustrationnew-patient-path-3"/><path d="M346,1 L403,44 C455.330837,60.5927043 498.49333,98.0479325 522.293031,147.519222 L574,255 L574,255 L617,159 L692,193 L637.210403,321.803615 C619.915873,362.46093 572.93662,381.40021 532.279305,364.10568 C517.498602,357.818366 504.952779,347.227337 496.274699,333.711035 L465,285 L465,285 C484.333333,388.333333 494.666667,454.666667 496,484 C497.333333,513.333333 487.666667,530 467,534 L122.243501,534 C67.0150256,534 22.2435006,489.228475 22.2435006,434 C22.2435006,427.344215 22.9079885,420.705057 24.2270788,414.181295 L66.6882657,204.183034 C82.3396526,126.776718 138.279412,63.6979364 213.259839,38.9060209 L216,38 L216,38 L271,0 L324.45715,50.637 L346,1 Z" id="masterspot-illustrationnew-patient-path-7"/><rect id="masterspot-illustrationnew-patient-path-5" x="0" y="0" width="1400" height="928"/></defs><g id="Master/Spot Illustration/New Patient" stroke="none" stroke-width="1" fill="none" fill-rule="evenodd"><g transform="translate(0.000000, 200.000000) scale(1 1)" id="Master/Character/Standing"><g id="Master/Character/Standing" stroke="none" stroke-width="1" fill="none" fill-rule="evenodd"><g id="Head" transform="translate(561.000000, 338.000000)" fill="#ff8095"><path d="M173.4931,66.499221 C182.1061,110.758221 197.9031,184.720221 112.0001,190.645221 C47.3491,195.103221 34.1221,133.336221 28.0001,98.645221 C19.0001,47.645221 36.0001,13.645221 84.0001,2.64522101 C149.3581,-12.333779 168.3391,40.016221 173.4931,66.499221"/><path d="M140,217 L140,172 L66,172 L64,214 L-6.39488462e-13,246.644721 L37.2,279.966721 C78.318,316.799721 141.503,313.346721 178.363,272.252721 L201.333,246.644721 L140,217 Z" id="Neck"/></g><g id="Hair" transform="translate(404.000000, 144.000000) scale(1 1)"><g id="Hair/Bob 1" stroke="none" stroke-width="1" fill="none" fill-rule="evenodd"><path d="M379.1881,444.2681 C398.2821,436.8601 411.2351,418.6451 411.298332,398.1641 C411.3721,374.6301 393.6951,386.5171 375.5801,342.9771 C352.2061,286.7971 374.6961,227.2521 328.9161,191.6441 C283.1341,156.0371 178.8411,156.0371 178.8411,211.3781 C110.2201,215.8301 150.6261,265.1071 118.3461,318.5341 C86.0671,371.9611 118.3461,425.1191 118.3461,425.1191 C118.3461,425.1191 144.0401,456.5881 255.1541,460.6201 C316.2881,462.8381 355.9111,453.2991 379.1881,444.2681" id="Hair" fill="#ff8095"/></g></g><g id="Face" transform="translate(593.000000, 388.000000) scale(1 1)"><g id="Face/Fever" stroke="none" stroke-width="1" fill="none" fill-rule="evenodd"><path d="M58.0592952,33.4490361 C74.6605856,33.4490361 88.1185904,46.7799735 88.1185904,63.2245181 C88.1185904,79.6690627 74.6605856,93 58.0592952,93 C41.4580049,93 28,79.6690627 28,63.2245181 C28,46.7799735 41.4580049,33.4490361 58.0592952,33.4490361 Z M145.629023,32.9996928 C148.655131,50.7308249 150.718908,70.4902244 147.004208,87.9945307 L146.923991,88.3556415 C134.422192,85.1395547 125.191721,73.8850532 125.191721,60.4950152 C125.191721,47.5716477 133.790002,36.637555 145.629023,32.9996928 Z" id="Cheeks" fill="#FFD4D4"/><path d="M138.007134,13.7702134 L145.857426,12.2297866 L147.549095,20.8795674 L148.018253,23.3396028 C150.609344,37.0644778 152.103078,47.4422921 152.719024,57.8208348 L152.76153,58.5622057 C153.98411,80.6614745 150.609705,98.5962452 141.031202,112.508343 C129.646431,129.04392 110.03365,138.785988 81.1510446,140.92809 L80.2729757,140.990675 L79.7270243,133.009325 C106.810648,131.156714 124.44055,122.497958 134.441949,107.971632 C142.846582,95.7644971 145.907418,79.4963265 144.773744,59.0041074 L144.689081,57.5786659 C144.070509,47.8319356 142.627723,37.9089558 140.153411,24.804129 L139.313239,20.428357 L138.007134,13.7702134 Z" id="Stroke-9" fill="#000" fill-rule="nonzero"/><path d="M87.6706081,36.7754 C88.8906081,44.9694 88.1856081,51.8644 83.9446081,52.4954 C79.7036081,53.1264 78.0106081,46.5894 76.7906081,38.3954 C75.5706081,30.2014 75.2786081,23.4544 79.5266081,22.8224 C83.7756081,22.1894 86.4506081,28.5814 87.6706081,36.7754" id="Eye-L" fill="#000" transform="translate(82.103681, 37.658337) rotate(80.000000) translate(-82.103681, -37.658337)"/><path d="M129.762908,36.1462 C130.982908,44.3402 130.277908,51.2352 126.036908,51.8662 C121.795908,52.4982 120.102908,45.9602 118.882908,37.7662 C117.662908,29.5722 117.370908,22.8262 121.618908,22.1932 C125.867908,21.5612 128.542908,27.9522 129.762908,36.1462" id="Eye-R" fill="#000" transform="translate(124.195981, 37.029261) rotate(120.000000) translate(-124.195981, -37.029261)"/></g></g><g id="Lower Body" transform="translate(200.000000, 1068.000000) scale(1 1)"><g id="Lower Body/Sweatpants" stroke="none" stroke-width="1" fill="none" fill-rule="evenodd"><g id="Group-13" transform="translate(290.000000, 2.000000)"><path d="M258.2989,648.9033 L258.2989,712.0853 C258.2989,729.1663 258.2989,729.9893 320.4509,729.9893 C393.3049,729.9893 454.6379,729.9893 454.6379,720.8273 C454.6379,689.1333 363.6009,657.8933 320.4509,648.9033 L258.2989,648.9033 Z" id="R-Foot" fill="#ff8095"/><path d="M77.8406,648.5889 C30.7096,648.5889 -12.9524,729.9899 28.8256,729.9899 L113.2046,729.9899 C139.7126,729.9899 131.0876,683.5759 117.4186,648.5889 L77.8406,648.5889 Z" id="L-Foot" fill="#ff8095"/><g id="Group" transform="translate(0.500000, 653.500000)"><path d="M243.25,64.9264706 C243.388936,71.358391 248.642808,76.5 255.076229,76.5 L455.25324,76.5 C460.776089,76.5000012 465.253242,72.0228482 465.253242,66.5 C465.253242,65.8730119 465.194275,65.2474132 465.07712,64.6314677 C458.35017,29.264272 430.226153,9.72044942 380.705069,6 C372.490998,6 364.276926,19.4260484 356.062855,46.2781453 C354.776905,50.4819557 350.896361,53.3529412 346.500262,53.3529412 L254.576229,53.3529412 C248.319466,53.3529412 243.247358,58.4250496 243.247358,64.6818125 C243.247358,64.7633723 243.248239,64.8449298 243.25,64.9264706 Z" id="Path" fill="#9F856F"/><path d="M32.6657672,4.2261593 C53.4357098,-1.69074113 72.9369977,-0.568959777 90.9199774,7.64911534 C109.656468,16.2115389 120.475171,34.3183518 123.464376,61.1424598 C123.814557,64.2848599 121.543538,67.115325 118.391913,67.4644805 C115.240289,67.8136361 112.401515,65.549264 112.051334,62.406864 C109.472891,39.2687911 100.804821,24.7614027 86.1354161,18.0576043 C70.7125003,11.0094575 54.0240681,10.0494814 35.8204659,15.2352878 C32.7714549,16.103884 29.5935398,14.3435431 28.7223938,11.3034562 C27.8512479,8.2633693 29.6167563,5.09475555 32.6657672,4.2261593 Z" id="Path-4" fill="#F1E8E0" fill-rule="nonzero"/><path d="M20.7540868,76.5311962 L127.220824,76.5311962 C131.517144,76.5311962 135,73.0483404 135,68.7520201 C135,64.4556998 131.517144,60.9728441 127.220824,60.9728441 L115.292754,60.9728441 L115.292754,60.9728441 C112.526825,24.3242814 92.1280964,6 54.0965691,6 C22.7216469,6 4.99434267,22.0006555 0.914656347,54.0019665 C-0.482198851,64.9589815 7.26784234,74.9737718 18.2248574,76.3706266 C19.0636916,76.4775653 19.9084636,76.5311962 20.7540868,76.5311962 Z" id="Path-3" fill="#9F856F"/><path d="M374.610913,1.6109127 C376.758796,-0.536970901 380.241204,-0.536970901 382.389087,1.6109127 C384.536971,3.75879631 384.536971,7.24120369 382.389087,9.3890873 C370.451896,21.3262787 361.923536,37.1195379 356.825525,56.8743291 C356.218355,59.227113 354.143629,60.8932235 351.734179,60.9950578 L351.5,61 L247.5,61 C244.462434,61 242,58.5375661 242,55.5 C242,52.5365209 244.34378,50.1204609 247.278793,50.0043672 L247.5,50 L347.301,50 L347.507288,49.2910355 C353.107416,30.2309921 361.934498,14.5151286 374.0047,2.22268183 L374.610913,1.6109127 Z" id="Path-2" fill="#F1E8E0" fill-rule="nonzero"/></g><path d="M349.6337,444.0718 L352.7487,407.5818 C355.2217,378.6168 354.6717,349.4738 351.1067,320.6238 L345.7647,277.3838 C342.7387,252.8918 341.8837,228.1798 343.2107,203.5368 L346.6517,139.5878 C347.8647,117.0558 347.2547,94.4628 344.8267,72.0298 L337.0317,-0.0002 L21.0427,-0.0002 L18.5617,17.2288 C8.6417,86.1248 8.4807,156.0748 18.0877,225.0148 C24.3817,270.1868 26.4897,315.8438 24.3867,361.4028 L23.4737,381.1758 C21.8547,416.2198 22.7287,451.3348 26.0867,486.2558 L33.5707,564.0768 L27.1397,612.1808 C23.9107,636.3198 42.6877,657.7748 67.0417,657.7748 L113.8787,657.7748 C160.9737,657.7748 160.9737,591.8018 160.9737,591.8018 C160.9737,591.8018 154.5097,552.2138 160.9737,527.7628 C167.4377,503.3118 171.4607,453.6098 174.4247,398.5218 C175.5297,377.9628 183.3707,364.0498 191.7967,348.8188 C194.6657,364.6658 198.6407,382.0518 204.1097,398.5218 C220.7697,448.6828 223.0797,496.6528 221.8357,517.1098 C219.5227,555.1348 222.4647,593.2988 230.5767,630.5198 L230.7417,631.2748 C234.1127,646.7438 247.8067,657.7748 263.6397,657.7748 L322.7987,657.7748 C341.3937,657.7748 356.4677,642.6998 356.4677,624.1048 L356.4677,597.6648 C356.4677,577.9288 355.0717,558.2168 352.2917,538.6768 C347.8337,507.3438 346.9407,475.6058 349.6337,444.0718 Z" id="Fill-6" fill="#696089"/><path d="M170.430177,398.306795 L178.418623,398.736605 L178.102612,404.515237 C174.711237,465.520875 170.651507,506.280837 165.017096,528.109212 L164.840507,528.785188 L157.106293,526.740212 C162.643808,505.797013 166.721486,465.110276 170.117058,404.032353 L170.430177,398.306795 Z M221.886427,200.836158 L228.542773,205.273842 C226.950537,207.662133 225.607775,209.96265 224.472263,212.246209 C221.403461,218.417683 219.711826,224.712854 218.845424,232.981345 L218.719979,234.250269 C218.07217,241.146897 217.958831,247.478962 217.99584,265.312737 L218.011067,273.502803 L218.0116,275.102 C218.0116,290.353261 215.816872,303.733891 211.602177,316.401856 C208.46535,325.83011 204.748734,333.760792 198.540084,345.100622 L192.213797,356.546239 C183.350923,372.841236 179.325004,383.957694 178.458881,398.041772 L178.418825,398.73686 L170.430375,398.30714 C171.26849,382.726692 175.521856,370.627606 184.73631,353.553901 L191.076382,342.072456 L191.914946,340.541174 C197.673536,329.975645 201.121463,322.562156 204.011281,313.876327 C207.858041,302.314252 209.907672,290.115497 210.00775,276.177595 L210.001012,267.584894 L209.98983,258.836406 C209.997902,245.150093 210.171228,239.50366 210.80408,232.988867 C211.733993,223.416033 213.679093,215.984113 217.308999,208.684235 C218.470313,206.348789 219.811629,204.016168 221.361893,201.63263 L221.886427,200.836158 Z" id="Combined-Shape" fill="#000" fill-rule="nonzero"/></g></g></g><g id="Upper Body" transform="translate(100.000000, 428.000000) scale(1 1)"><g id="Upper Body/Long Sleeve Tee" stroke="none" stroke-width="1" fill="none" fill-rule="evenodd"><g id="Group-21" transform="translate(374.000000, 136.000000)"><path d="M486.8818,329.2827 L469.6828,384.3807 L517.4108,398.7877 L533.8098,411.0717 C544.6678,419.2057 557.5258,424.2487 571.0188,425.6667 L612.3598,430.0117 C620.4778,430.8657 628.4678,427.5117 633.5448,421.1187 C639.5278,413.5867 639.2998,402.8617 633.0028,395.5897 L608.1268,366.8587 C598.4278,355.6557 583.3288,350.7327 568.8898,354.0657 L486.8818,329.2827 Z" id="Hand" fill="#ff8095"/><path d="M582.513514,389.253977 L586.053723,392.14197 L586.971111,392.915868 L588.087562,393.876891 C589.110907,394.766195 590.214463,395.747683 591.381909,396.813006 C595.668759,400.724863 599.955784,404.974053 603.967401,409.423534 C608.852738,414.842102 612.99097,420.187183 616.153766,425.366289 L616.578988,426.071493 L618.624895,429.508681 L611.750519,433.600495 L609.704612,430.163307 C606.791622,425.269392 602.808114,420.084826 598.025753,414.780476 C594.203155,410.540644 590.096378,406.470112 585.989426,402.722416 L584.931899,401.764743 C583.895018,400.833042 582.921724,399.98013 582.026893,399.213845 L581.125319,398.449227 L580.564231,397.983255 L577.462377,395.457686 L582.513514,389.253977 Z M594.469017,376.544515 L597.960962,378.952388 C598.32803,379.210924 598.877208,379.609955 599.586454,380.144443 C600.982165,381.196251 602.531397,382.425264 604.196102,383.822992 C608.941677,387.807497 613.684504,392.360898 618.119854,397.42036 C624.515482,404.715936 629.725582,412.447765 633.329887,420.548942 L633.697001,421.38831 L635.276591,425.06321 L627.92679,428.222391 L626.347199,424.54749 C623.095866,416.983298 618.204275,409.652495 612.104146,402.693998 C607.956227,397.962413 603.502695,393.686753 599.051911,389.949761 C597.670559,388.789943 596.379626,387.758731 595.206213,386.862943 L594.771745,386.533385 C594.504553,386.332029 594.256282,386.147448 594.027971,385.979899 L593.223449,385.401634 L589.929715,383.131983 L594.469017,376.544515 Z" id="Combined-Shape" fill="#000" fill-rule="nonzero"/><path d="M504.7665,328.562 C494.824145,326.918031 465.846292,315.560237 417.832942,294.488616 C395.829762,284.832079 379.332425,265.796729 372.901234,242.644441 L326.711213,76.3603654 C321.049898,55.9796328 309.071762,37.918984 292.498893,24.7749839 L289,22 L289,22 L253,3 C253,3 218,54 185.6695,43.396 C139.703451,28.3197102 127,0 127,0 L90.3905,18.791 C45.6905,41.991 16.8965,87.412 14.9845,137.738 L0.9995,505.914 C0.9995,505.914 223.8885,619.904 373.2545,505.914 L364.3995,402.303 C428.1885,429.965 483.3245,435.525 483.3245,435.525 L504.7665,328.562 Z" id="Shirt" fill="#EFEED8"/><polygon id="Stroke-11" fill="#000" fill-rule="nonzero" points="358.55027 286.892972 377.24027 505.572972 369.26933 506.254228 350.57933 287.574228"/><path d="M317.5341,328.562 L306.1881,385.156 L355.1611,394.495 L372.7541,404.998 C384.4031,411.952 397.7171,415.624 411.2841,415.624 L452.8531,415.624 C461.0151,415.624 468.6121,411.453 472.9931,404.565 C478.1551,396.448 476.8071,385.806 469.7861,379.232 L442.0431,353.258 C431.2241,343.13 415.6941,339.813 401.6821,344.637 L317.5341,328.562 Z" id="Hand" fill="#ff8095"/><path d="M418.910697,378.208774 L422.544961,380.584844 L423.525717,381.246991 C423.709833,381.372721 423.903097,381.505409 424.10519,381.644933 L425.08539,382.327205 C426.255698,383.148278 427.517826,384.056484 428.853119,385.044633 C433.757798,388.674212 438.663265,392.645221 443.255177,396.840993 C448.293705,401.444852 452.647519,406.044109 456.122297,410.583865 L456.636897,411.264376 L459.030621,414.469073 L452.621227,419.256521 L450.227503,416.051824 C447.007108,411.740387 442.804426,407.265819 437.858809,402.746855 C433.488624,398.753682 428.791844,394.951607 424.094276,391.475295 L423.016378,390.683511 C421.957012,389.911177 420.954571,389.197723 420.021015,388.547932 L418.765356,387.684064 L417.884788,387.094015 L414.535874,384.906603 L418.910697,378.208774 Z M429.472091,364.319268 L433.215421,366.359318 C433.59956,366.573883 434.156012,366.895297 434.866031,367.321303 L435.108366,367.467175 C436.736309,368.450225 438.543727,369.60766 440.486268,370.934392 C446.027007,374.718651 451.565876,379.115225 456.748097,384.089827 C463.194123,390.277602 468.628344,396.928854 472.722588,404.026747 L473.171973,404.817239 L475.126834,408.307012 L468.147288,412.216734 L466.192427,408.726961 C462.468374,402.078867 457.359388,395.766019 451.208033,389.86111 C446.368938,385.215886 441.170683,381.089681 435.974298,377.540612 C434.360562,376.438449 432.852154,375.464854 431.480765,374.624364 L430.972979,374.315428 C430.660489,374.126728 430.370071,373.954064 430.10294,373.797605 L429.159338,373.25807 L425.646368,371.345209 L429.472091,364.319268 Z" id="Combined-Shape" fill="#000" fill-rule="nonzero"/><path d="M175.371886,258.235448 C199.597671,284.232971 266.303644,315.626596 316.665916,324.358343 L318.186982,324.615975 L322.269939,325.291031 L299.299272,439.869068 L295.100479,439.441568 L293.698813,439.276218 C293.327186,439.230592 292.931555,439.180756 292.512294,439.126579 L292.085169,439.07095 C289.406044,438.719337 286.334518,438.267831 282.900833,437.705563 L282.102029,437.573837 C271.389904,435.795126 259.463445,433.335817 246.62463,430.08684 C209.944672,420.80465 173.261204,407.052891 138.991849,387.944225 C115.792117,375.008004 94.4983561,360.01179 75.5244962,342.803387 L74.3165534,341.701972 L79.7224466,335.804828 C98.5197372,353.036242 119.718321,368.03763 142.887916,380.957046 C176.496956,399.69752 212.54034,413.209327 248.587234,422.331315 C260.735573,425.40556 272.043952,427.758498 282.240843,429.485408 L283.412459,429.681894 C286.555237,430.203741 289.392377,430.631845 291.899958,430.974641 L292.896,431.108 L312.807,331.792 L312.143268,331.66904 C261.134507,322.039741 195.899616,291.184191 170.305951,264.521178 L169.519114,263.689352 L175.371886,258.235448 Z" id="Stroke-19" fill="#000" fill-rule="nonzero"/></g></g></g></g></g><g transform="translate(513.000000, 200.000000) scale(1 1)" id="Master/Character/Sitting"><defs><rect id="mastercharactersitting-path-1" x="0" y="0" width="1400" height="928"/><path d="M346,1 L403,44 C455.330837,60.5927043 498.49333,98.0479325 522.293031,147.519222 L574,255 L574,255 L617,159 L692,193 L637.210403,321.803615 C619.915873,362.46093 572.93662,381.40021 532.279305,364.10568 C517.498602,357.818366 504.952779,347.227337 496.274699,333.711035 L465,285 L465,285 C484.333333,388.333333 494.666667,454.666667 496,484 C497.333333,513.333333 487.666667,530 467,534 L122.243501,534 C67.0150256,534 22.2435006,489.228475 22.2435006,434 C22.2435006,427.344215 22.9079885,420.705057 24.2270788,414.181295 L66.6882657,204.183034 C82.3396526,126.776718 138.279412,63.6979364 213.259839,38.9060209 L216,38 L216,38 L271,0 L324.45715,50.637 L346,1 Z" id="mastercharactersitting-path-3"/></defs><g id="Master/Character/Sitting" stroke="none" stroke-width="1" fill="none" fill-rule="evenodd"><g id="Chair" transform="translate(100.000000, 800.000000) scale(1 1)"><g id="Chair/Wheelchair" stroke="none" stroke-width="1" fill="none" fill-rule="evenodd"><g id="Group" transform="translate(114.000000, 142.000000)"><path d="M217.6995,6.67757451 C265.3605,-2.53442549 314.3755,-2.21242549 361.9125,7.62657451 C375.4645,7.62357451 386.2845,18.7055745 385.9565,32.2535745 L385.9565,32.2535745 L376.5045,338.850575 L388.584762,363.129246 C405.956125,359.304773 424.005267,357.286921 442.5252,357.282761 C580.5962,357.250775 692.5502,469.153775 692.582214,607.224775 C692.6142,745.295775 580.7112,857.250775 442.6392,857.282787 C304.5682,857.313775 192.6142,745.410775 192.583185,607.339775 C192.569512,550.104878 211.790484,497.357956 244.136664,455.210941 L237.4555,448.730575 C211.1275,423.196575 195.8705,318.350575 194.9665,281.685575 L194.9665,281.685575 L186.9295,38.1235745 C186.5685,23.4755745 196.8415,10.7095745 211.2275,7.92857451 L211.2275,7.92857451 Z M806.6887,707.199771 C848.1087,707.190775 881.6957,740.761775 881.704696,782.182775 C881.7147,823.603775 848.1437,857.190775 806.7227,857.199771 C765.3007,857.209775 731.7147,823.637775 731.704696,782.216775 C731.6957,740.795775 765.2667,707.209775 806.6887,707.199771 Z M442.5342,397.282763 C430.522502,397.285335 418.665015,398.289574 407.057107,400.255938 L443.8115,474.127575 L296.4325,505.929575 L273.06016,483.261587 C246.767494,519.041153 232.571907,562.095854 232.583187,607.329775 C232.5952,663.422775 254.4512,716.153775 294.1242,755.808775 C333.7972,795.463775 386.5372,817.294775 442.6302,817.282784 C498.7232,817.269775 551.4542,795.413775 591.1092,755.740775 C630.7632,716.067775 652.5952,663.326775 652.582212,607.233775 C652.5692,551.140775 630.7132,498.410775 591.0412,458.755775 C551.3682,419.100775 498.6282,397.269775 442.5342,397.282763 Z M806.6967,747.199773 C787.3987,747.203775 771.7007,762.908775 771.704698,782.207775 C771.7097,801.506775 787.4137,817.203775 806.7127,817.199773 C826.0117,817.195775 841.7097,801.490775 841.704698,782.191775 C841.7007,762.892775 825.9957,747.195775 806.6967,747.199773 Z M442.573,567.282272 C464.665,567.277275 482.577,585.181275 482.582997,607.273275 C482.588,629.364275 464.682,647.277275 442.592,647.282272 C420.5,647.287275 402.588,629.383275 402.582997,607.291275 C402.577,585.199275 420.482,567.287275 442.573,567.282272 Z" id="Back-of-chair" fill="#5974AA"/><g id="Legs" transform="translate(274.000000, 311.000000)"><path d="M373.915076,384 L518.432115,384 C529.47781,384 538.432115,375.045695 538.432115,364 C538.432115,356.319535 534.033859,349.317522 527.114954,345.98311 L440,304 L440,304 L356.050391,304 L344.90264,346.365961 C340.686477,362.389087 350.257911,378.796273 366.281037,383.012436 C368.772751,383.66808 371.338547,384 373.915076,384 Z" id="Fill-21" fill="#DBDAC6"/><path d="M453.915076,384 L598.432115,384 C609.47781,384 618.432115,375.045695 618.432115,364 C618.432115,356.319535 614.033859,349.317522 607.114954,345.98311 L520,304 L520,304 L436.050391,304 L424.90264,346.365961 C420.686477,362.389087 430.257911,378.796273 446.281037,383.012436 C448.772751,383.66808 451.338547,384 453.915076,384 Z" id="Fill-21-Copy" fill="#DBDAC6"/><path d="M420.487681,36.7249148 L363.370958,49 L363.370958,49 L358.116105,70.3002364 C349.82595,103.903887 370.346593,137.865525 403.950244,146.15568 C412.47837,148.259603 421.353532,148.547263 430,147 L430,147 L430,147 L409.374022,304 L518.370958,304 L550.55971,169.953687 C564.744775,110.881637 528.356684,51.4950116 469.284633,37.3099469 C453.267949,33.4638353 436.591971,33.2639051 420.487681,36.7249148 Z" id="Pants" fill="#A9B4FF"/><path d="M367.299122,29.7411832 L260,49 L260,49 L0.629042286,49 C1,142 50.4909338,171 112,171 L260.648371,171 C276.192614,171 291.713348,169.791885 307.070364,167.38657 L367,158 L367,158 L351.003064,304 L460,304 L493.691578,163.695348 C507.876642,104.623297 471.488551,45.236672 412.416501,31.0516073 C397.629637,27.5008144 382.267149,27.0546144 367.299122,29.7411832 Z" id="Pants" fill="#A9B4FF"/><path d="M423.993773,30.7108553 L427.641459,32.352314 C482.690838,57.1245346 505.212329,103.899939 494.954862,171.599222 C489.325754,208.751336 479.718654,250.653542 466.136134,297.314239 L464.854,301.689 L578.769231,349.153846 C588.957664,353.399027 593.832755,365.020468 589.779989,375.240064 L589.646154,375.569231 C586.559494,382.977215 579.387185,387.843678 571.387704,387.996303 L571,388 L567,388 L567,380 L571,380 C575.92515,380 580.36725,377.0386 582.261538,372.492308 C584.813159,366.368418 582.001071,359.349511 575.977029,356.661281 L575.692308,356.538462 L455.140951,306.308729 L456.165746,302.860485 C470.870554,253.381549 481.162677,209.225021 487.045138,170.400778 C496.690246,106.743068 476.38901,63.7420649 425.897819,40.3505195 L424.358541,39.647686 L420.710855,38.0062273 L423.993773,30.7108553 Z" id="Path-11" fill="#000" fill-rule="nonzero"/><polygon id="Path-2" fill="#000" fill-rule="nonzero" points="397.251552 148.070646 398.748448 155.929354 335.748448 167.929354 334.251552 160.070646"/></g><path d="M250,357.261975 C256.48044,357.261975 262.903291,357.508548 269.259682,357.992825 L644,358 L644,398 L410.019249,415.176268 C430.413781,432.184671 448.057656,452.380023 462.185834,474.997282 L599.909,475 C635.64,475 662.605,507.426 656.091,542.559 L656.091,542.559 L623.4049,669.270575 C621.1249,681.567575 630.5629,692.917575 643.0699,692.917575 L643.0699,692.917575 L869.3689,692.917575 C873.9729,692.917575 877.7049,696.649575 877.7049,701.254575 C877.7049,724.865575 858.5639,744.006575 834.9529,744.006575 L834.9529,744.006575 L678.60565,744.005659 C685.261007,755.206343 689.0828,768.28779 689.0828,782.261775 C689.0828,823.682775 655.5038,857.261775 614.0828,857.261775 C572.6618,857.261775 539.0828,823.682775 539.0828,782.261775 C539.0828,755.130181 553.489921,731.36321 575.071102,718.19392 C567.957477,706.972096 564.794981,693.116626 567.3739,678.771575 L567.3739,678.771575 L567.518583,677.918404 C567.881832,675.639968 568.064417,673.335926 568.064417,671.027813 C568.064417,646.856387 548.469605,627.261575 524.298179,627.261575 L524.298179,627.261575 L499.211584,627.262778 C489.022428,755.982272 381.338596,857.261975 250,857.261975 C111.929,857.261975 -8.52651283e-13,745.332975 -8.52651283e-13,607.261975 C-8.52651283e-13,469.190975 111.929,357.261975 250,357.261975 Z M614.0828,747.261775 C594.7838,747.261775 579.0828,762.962775 579.0828,782.261775 C579.0828,801.560775 594.7838,817.261775 614.0828,817.261775 C633.3818,817.261775 649.0828,801.560775 649.0828,782.261775 C649.0828,762.962775 633.3818,747.261775 614.0828,747.261775 Z M250,397.261975 C193.907,397.261975 141.172,419.105975 101.508,458.768975 C61.844,498.432975 40,551.168975 40,607.261975 C40,663.354975 61.844,716.089975 101.508,755.753975 C141.172,795.417975 193.907,817.261975 250,817.261975 C306.094,817.261975 358.829,795.417975 398.493,755.753975 C433.404104,720.84199 454.510114,675.803377 459.066298,627.261635 L284.648787,627.261357 C277.73277,639.217517 264.805957,647.261775 249.9998,647.261775 C227.9088,647.261775 209.9998,629.352775 209.9998,607.261775 C209.9998,585.170775 227.9088,567.261775 249.9998,567.261775 C264.805554,567.261775 277.732066,575.305594 284.648222,587.261216 L459.066206,587.261294 C457.375124,569.24528 453.404345,551.711738 447.294191,534.99936 L324.665,535 C289.52,535 265.343,499.698 278.045,466.929 L278.045,466.929 L315.1601,413.836425 L251.031,397.265113 Z M489.39692,534.99798 C494.445443,551.745604 497.784602,569.234233 499.211575,587.261047 L556.157843,587.261575 C572.722051,587.261575 587.470757,576.775799 592.91195,561.130787 C593.63451,559.053216 594.003469,556.869161 594.003469,554.669526 C594.003469,543.806347 585.197122,535 574.333943,535 L574.333943,535 Z M398.493,458.768975 C388.348158,448.624388 377.348237,439.645486 365.655737,431.899615 L341.85,461.203 C339.15,467.784 343.989,475 351.101,475 L351.101,475 L413.146825,474.999089 C408.573705,469.379498 403.686086,463.962191 398.493,458.768975 Z M92.8815,79.0653745 L164.3065,86.3963745 C186.5395,88.6793745 203.8975,107.243375 204.6835,129.578375 L209.0145,252.562375 C209.3055,260.841375 202.8305,267.789375 194.5515,268.080375 C194.3715,268.087375 194.1925,268.090375 194.0135,268.090375 C185.9735,268.090375 179.3185,261.718375 179.0335,253.618375 L174.7015,130.634375 C174.4405,123.189375 168.6545,117.000375 161.2425,116.239375 L89.8185,108.908375 C81.5765,108.063375 75.5815,100.695375 76.4285,92.4553745 C77.2735,84.2143745 84.6315,78.2273745 92.8815,79.0653745 Z" id="Front-of-chair" fill="#193256"/><path d="M614.0832,703.261275 C650.458867,703.261275 681.84203,728.047475 690.655161,762.753362 L690.915299,763.808077 L683.135101,765.670472 C675.552116,733.992389 647.104606,711.261275 614.0832,711.261275 C593.83175,711.261275 574.963475,719.781205 561.596505,734.446709 L561.162581,734.927107 L555.201819,729.591442 C570.094738,712.95375 591.31201,703.261275 614.0832,703.261275 Z" id="Stroke-24" fill="#000" fill-rule="nonzero"/><path d="M246.9998,353.261775 C385.877138,353.261775 498.722747,464.71861 500.965771,603.061426 L500.9998,607.261775 L492.9998,607.261775 C492.9998,472.758532 385.05341,363.46711 251.067854,361.294732 L246.9998,361.261775 L246.9998,353.261775 Z" id="Stroke-26" fill="#000" fill-rule="nonzero"/></g></g></g><g id="Head" transform="translate(560.999650, 572.000000)" fill="#ffeb81"><path d="M173.4931,66.499221 C182.1061,110.758221 197.9031,184.720221 112.0001,190.645221 C47.3491,195.103221 34.1221,133.336221 28.0001,98.645221 C19.0001,47.645221 36.0001,13.645221 84.0001,2.64522101 C149.3581,-12.333779 168.3391,40.016221 173.4931,66.499221"/><path d="M140,217 L140,172 L66,172 L64,214 L-6.39488462e-13,246.644721 L37.2,279.966721 C78.318,316.799721 141.503,313.346721 178.363,272.252721 L201.333,246.644721 L140,217 Z" id="Neck"/></g><g id="Hair" transform="translate(403.999650, 378.000000) scale(1 1)"><g id="Hair/Big Bun" stroke="none" stroke-width="1" fill="none" fill-rule="evenodd"><path d="M398.499373,134.717091 C363.591862,94.313508 336.502569,111.047428 285.710645,159.370277 C283.535862,161.439483 281.293086,163.300365 279.222293,165.215331 C223.781834,154.964453 195.70464,175.206807 181.49806,197.56544 C168.169392,191.496039 153.363871,188.112798 137.76943,188.112798 C79.3542676,188.112798 32,235.545268 32,294.055898 C32,352.56753 79.3542676,400 137.76943,400 C196.183592,400 243.53786,352.56753 243.53786,294.055898 C243.53786,292.022749 243.474866,290.004623 243.361877,287.999517 C260.605154,283.44346 279.638252,277.896869 297.745442,271.551039 C327.804438,285.010888 364.224798,280.700211 390.578165,257.508288 C426.617563,225.79116 429.892236,171.053374 398.499373,134.717091" id="Hair" fill="#ffeb81"/></g></g><g id="Face" transform="translate(592.999650, 622.000000) scale(1 1)" fill="#000"><g id="Face/Glasses" stroke="none" stroke-width="1" fill="none" fill-rule="evenodd"><path d="M139.505488,21.7624637 L147.358805,20.2375363 L147.914623,23.1292784 C150.492,36.6861902 151.956285,46.6187181 152.640849,56.8252335 C153.601715,71.1512888 152.68093,83.6925106 149.422756,94.7127057 C141.400988,121.844902 119.647922,138.009871 81.4351761,140.907001 L80.2721732,140.990729 L79.7278268,133.009271 C115.453825,130.572709 134.63761,116.504402 141.751032,92.4445228 C144.707273,82.445563 145.561191,70.815079 144.658782,57.3606006 C143.998859,47.5214545 142.57044,37.8441959 140.038812,24.5363568 L139.505488,21.7624637 Z" id="Stroke-9" fill="#000" fill-rule="nonzero"/><path d="M134,17 C147.254834,17 158,27.745166 158,41 C158,54.254834 147.254834,65 134,65 C122.108321,65 112.236654,56.3512987 110.331981,45.0008768 L108.668019,45.0008768 C106.763346,56.3512987 96.891679,65 85,65 C73.108321,65 63.2366545,56.3512987 61.3319809,45.0008768 L27,45 C23.2145483,45 20.1309013,48.0047834 20.004059,51.7593502 L20,52 C20,54.209139 18.209139,56 16,56 C13.790861,56 12,54.209139 12,52 C12,43.8205929 18.5467864,37.1702698 26.6861718,37.0032178 L27,37 L61.3318133,37.000122 C63.2360754,25.6492086 73.1079722,17 85,17 C96.8920278,17 106.763925,25.6492086 108.668187,37.000122 L110.331813,37.000122 C112.236075,25.6492086 122.107972,17 134,17 Z M85,25 C76.163444,25 69,32.163444 69,41 C69,49.836556 76.163444,57 85,57 C93.836556,57 101,49.836556 101,41 C101,32.163444 93.836556,25 85,25 Z M134,25 C125.163444,25 118,32.163444 118,41 C118,49.836556 125.163444,57 134,57 C142.836556,57 150,49.836556 150,41 C150,32.163444 142.836556,25 134,25 Z" id="Glasses" fill="#73C8FF" transform="translate(85.000000, 41.000000) rotate(-5.000000) translate(-85.000000, -41.000000)"/></g></g><g id="Torso" transform="translate(0.000000, 372.000000)"><mask id="mastercharactersitting-mask-2" fill="#ffffff"><use xlink:href="#mastercharactersitting-path-1" fill="#ffffff"/></mask><g id="Mask"/><g mask="url(#mastercharactersitting-mask-2)"><g transform="translate(100.000000, 288.000000) scale(1 1)" id="Upper Body"><g id="Upper Body/Holding Baby" stroke="none" stroke-width="1" fill="none" fill-rule="evenodd"><g id="Group-30" transform="translate(259.000000, 132.000000)"><path d="M355,0.9995 C346.264236,27.2069819 317.937138,41.3706078 291.729656,32.6348438 C285.925372,30.7000964 280.52529,27.7168964 275.797573,23.8333863 L248,0.9995 L248,0.9995 L248.0882,0.9995 L220.001781,7.57651227 C129.75153,28.7104631 58.9088045,98.5578122 36.5,188.5 L30.7736647,211.483784 C11.7118503,287.992163 34.6354705,368.871646 91.007,424 L91.007,424 L91.007,424 C91.0023333,480.666667 91,509 91,509 C224,578 382,493 483,509 C483,509 483,480.666667 483,424 C541.796724,368.916754 566.784793,286.675653 548.570491,208.193439 L544,188.5 C523.083551,98.3747132 454.051259,27.200475 364.606966,3.54072837 L355,0.9995 L355,0.9995 Z" id="Shirt" fill="#EFEED8"/><g id="Baby" transform="translate(151.474643, 69.215800)"><path d="M250,182.046694 C176.441038,262.980333 86.4721026,273.588975 32.9068391,252.735403 C-35.9951215,225.911067 8.75541309,100.799435 116.472939,131.944762 C188.704114,152.831003 242.85421,83.7419757 250,182.046694" id="Baby-Body" fill="#FFD2A5"/><path d="M194.882108,76.6068603 C182.251809,110.548949 160.032261,167.085383 227.262391,183.073805 C277.858554,195.105633 296.442749,147.895144 305.845123,121.20826 C319.668374,81.9751243 310.674515,52.7955207 274.118899,37.7685142 C224.343027,17.3069017 202.44073,56.2964206 194.882108,76.6068603" id="Baby-Color" fill="#ffeb81"/><path d="M191.049675,74.618056 L198.557067,77.381944 L196.679342,82.4829993 C195.951892,84.4682158 195.334753,86.1726693 194.74552,87.8297558 L194.069314,89.7471164 C190.091474,101.123304 187.537471,110.232798 186.12077,119.067162 C183.807862,133.490163 184.991557,145.452491 190.350633,155.07246 C196.550636,166.201962 208.438312,174.297549 227.243711,178.942373 L227.934803,179.110766 L226.065197,186.889234 C204.820239,181.782872 190.814309,172.343408 183.361897,158.965733 C177.005515,147.555518 175.6488,133.844674 178.221692,117.800446 C179.767738,108.159503 182.540992,98.378738 186.854726,86.1466944 L187.61194,84.0177855 C187.953486,83.064999 188.308993,82.0825595 188.692761,81.029937 L191.049675,74.618056 Z" id="Stroke-8" fill="#000" fill-rule="nonzero"/><path d="M241.262743,123 C240.455953,123 239.612878,122.889329 238.732452,122.64972 C238.288503,122.529378 237.836018,122.370355 237.395271,122.176948 C226.517472,117.396587 232.389114,103.84632 234.318582,99.3926001 C235.192605,97.3758011 237.526535,96.4528228 239.52857,97.3338964 C241.530606,98.2138955 242.446249,100.561634 241.572226,102.579508 C238.699369,109.211198 238.777273,112.193955 239.079286,113.38233 C239.269245,114.124795 239.585131,114.44499 240.550932,114.86941 C240.624568,114.901644 240.706741,114.93173 240.788914,114.954294 C242.545497,115.445331 245.114208,111.812514 248.415005,104.194451 C249.289028,102.177652 251.619757,101.254674 253.624994,102.135747 C255.628097,103.014672 256.542673,105.363485 255.66865,107.381359 C253.234405,113.000889 248.901641,122.998926 241.262743,123" id="Fill-10" fill="#000"/><path d="M238.199935,0.214979064 L246.044358,1.78502094 L246.047684,1.77321902 L246.037076,1.86758648 C245.968633,2.4895989 245.981735,3.29719023 246.144467,4.20549331 C246.37864,5.51254053 246.887164,6.79191311 247.741851,8.00390035 C249.8018,10.9250091 253.665286,13.2361944 259.974522,14.5372431 L260.45231,14.6329215 C272.613738,16.997478 278.996687,24.4311926 280.594891,35.03485 C281.207356,39.0983886 281.105287,43.0376724 280.530065,47.8633276 L280.346457,49.3201955 L280.185324,50.528766 L272.25553,49.471234 L272.478066,47.7898561 L272.507612,47.5575131 C273.07263,43.0788798 273.192924,39.6021445 272.68424,36.2271586 C271.584992,28.9339389 267.709091,24.3214106 259.347444,22.571029 L258.925616,22.4858958 C250.413725,20.8312824 244.583348,17.4064588 241.203989,12.6143633 C238.432069,8.68364519 237.692814,4.5574432 238.085071,0.99259094 C238.113947,0.730159954 238.146009,0.51048428 238.176979,0.336681382 L238.199935,0.214979064 Z M216.191229,0.402492354 L224.101472,1.59750765 L224.068811,1.9023515 L224.059169,2.01269032 C223.817444,4.89355657 224.190808,8.33373486 225.636158,11.5102754 C227.641243,15.9169801 231.404628,19.0471626 237.712229,20.4912766 L238.146244,20.5871214 C257.355851,24.6764559 267.273459,35.9305909 265.888155,48.1522126 L265.842714,48.5228545 L257.911353,47.4771455 C258.934489,39.7169901 252.243194,31.905988 236.981357,28.5206304 L236.48065,28.4118127 C227.40809,26.4807349 221.44707,21.6202411 218.354495,14.8234885 C216.330191,10.3745453 215.779656,5.8091473 216.053406,1.78827583 L216.087182,1.34378676 C216.104704,1.13495887 216.122932,0.951159709 216.140671,0.793805297 L216.191229,0.402492354 Z" id="Combined-Shape" fill="#000" fill-rule="nonzero"/></g><path d="M362.583097,184.2158 C361.831002,184.2158 361.109875,184.118988 360.431884,183.939506 C359.995005,183.822027 359.571399,183.676265 359.165489,183.502222 C355.32538,181.854248 349.911403,176.796109 356.733346,161.420456 C357.558439,159.561454 359.760528,158.711905 361.648508,159.523382 C363.5387,160.333772 364.403609,162.499526 363.57741,164.35744 C360.225058,171.915278 360.442944,176.036845 362.14843,176.767827 C362.224745,176.80046 362.305485,176.828742 362.384013,176.850498 C364.289688,177.354136 368.016983,172.949748 370.18368,166.305639 C370.813006,164.372668 372.917766,163.308828 374.879849,163.929945 C376.844144,164.549975 377.924728,166.617829 377.295401,168.548624 C373.487367,180.223678 367.409777,184.2158 362.583097,184.2158" id="Fill-12" fill="#000"/><path d="M442.565044,305.2158 C455.899203,289.856839 467.219938,272.75742 475.612653,258.649347 C485.665597,241.751579 487.67466,217.855309 472.097066,204.081526 C461.322473,194.555368 446.207083,190.888973 441.543616,202.33891 C433.577132,221.898049 416.155081,239.292937 401.474643,251.482623 L442.565044,305.2158 Z" id="Hand" fill="#ffeb81"/><path d="M398.544269,248.52303 L401.792636,244.954866 L455.391743,316.081021 L453.784074,318.449145 C439.965606,338.803978 425.530511,357.41373 408.304324,375.675346 C385.124292,400.248681 359.793701,420.813772 332.028776,436.166004 C298.745597,454.569478 263.13856,464.783766 225.175398,465.367759 C182.441064,466.025147 137.546496,454.445561 90.5238826,429.285608 L89.0983036,428.519027 L85.5792766,426.617331 L89.3826694,419.579277 L92.9016964,421.480973 C139.271567,446.539439 183.298979,458.011003 225.052347,457.368705 C261.646927,456.805766 295.980883,446.956675 328.157653,429.164975 C355.14023,414.245332 379.838095,394.19393 402.484896,370.185879 C418.493442,353.215093 432.06716,335.908854 445.013066,317.103964 L445.552,316.317 L401.187,257.445 L400.234253,258.455957 C366.56953,293.942564 327.945597,317.229748 287.78398,328.114994 L286.515211,328.454616 C249.610211,338.209489 212.993123,336.88334 183.904715,325.833194 L183.02556,325.495366 L179.297269,324.046283 L182.195435,316.5897 L185.923727,318.038783 C213.528597,328.768027 248.785278,330.152788 284.470832,320.720244 C324.869031,310.042036 363.795956,286.309382 397.523808,249.638237 L398.544269,248.52303 Z" id="Stroke-20" fill="#000" fill-rule="nonzero"/><path d="M468.805304,199.91046 L476.779983,200.546461 L476.461983,204.5338 C475.494527,216.664526 471.317053,227.962339 464.973248,238.197985 C462.429355,242.302523 459.703823,245.957026 456.971583,249.123902 L456.431292,249.744041 C455.201592,251.141405 454.192628,252.190481 453.485813,252.872425 L453.201629,253.142154 L450.275275,255.86914 L444.821304,250.016432 L447.853895,247.188417 C447.982162,247.06467 448.175803,246.872962 448.428375,246.615005 L448.559542,246.480513 C449.264464,245.754976 450.056636,244.892168 450.914361,243.897999 C453.384615,241.034786 455.861576,237.713575 458.173343,233.983569 C463.757205,224.974082 467.455183,215.114717 468.42284,204.646557 L468.487304,203.8978 L468.805304,199.91046 Z M449.82958,193.889889 L457.800555,194.570736 L457.460131,198.556224 C456.524405,209.511179 453.147132,219.707985 448.108161,228.951927 C446.011914,232.797472 443.764061,236.220305 441.508915,239.185509 L441.035955,239.800906 C440.03765,241.085985 439.214499,242.056413 438.63025,242.695892 L438.377792,242.967477 L435.626115,245.870626 L429.819818,240.367272 L432.66789,237.360039 C432.767299,237.25101 432.913826,237.086422 433.103117,236.867548 L433.221788,236.72972 C433.795518,236.060524 434.44127,235.263073 435.141264,234.342678 C437.161787,231.68597 439.189604,228.598187 441.083981,225.122972 C445.493752,217.033291 448.48041,208.165118 449.412281,198.711072 L449.489156,197.875376 L449.82958,193.889889 Z" id="Combined-Shape" fill="#000" fill-rule="nonzero"/></g></g></g></g></g></g></g></g></svg>